<svg width="30" height="30" viewBox="0 0 30 30" fill="none" xmlns="http://www.w3.org/2000/svg">
<g id="clarity:email-solid" clip-path="url(#clip0_194_153)">
<path id="Vector" d="M26.9419 4.99999C26.8283 4.98828 26.7138 4.98828 26.6002 4.99999H3.26686C3.11732 5.00229 2.96876 5.02472 2.8252 5.06666L14.8669 17.0583L26.9419 4.99999Z" fill="#10FFFE"/>
<path id="Vector_2" d="M28.1751 6.15833L16.0417 18.2417C15.7295 18.5521 15.307 18.7263 14.8667 18.7263C14.4264 18.7263 14.004 18.5521 13.6917 18.2417L1.66673 6.24999C1.62976 6.38586 1.61016 6.52586 1.6084 6.66666V23.3333C1.6084 23.7754 1.78399 24.1993 2.09655 24.5118C2.40911 24.8244 2.83304 25 3.27507 25H26.6084C27.0504 25 27.4743 24.8244 27.7869 24.5118C28.0995 24.1993 28.2751 23.7754 28.2751 23.3333V6.66666C28.2684 6.49304 28.2347 6.32152 28.1751 6.15833ZM4.41673 23.3333H3.2584V22.1417L9.31673 16.1333L10.4917 17.3083L4.41673 23.3333ZM26.5917 23.3333H25.4251L19.3501 17.3083L20.5251 16.1333L26.5834 22.1417L26.5917 23.3333Z" fill="#10FFFE"/>
<circle id="Ellipse 18" cx="24" cy="6" r="4" fill="#FA0909"/>
</g>
<defs>
<clipPath id="clip0_194_153">
<rect width="30" height="30" fill="white"/>
</clipPath>
</defs>
</svg>
