<svg width="30" height="30" viewBox="0 0 30 30" fill="none" xmlns="http://www.w3.org/2000/svg">
<g id="fa-solid:car" clip-path="url(#clip0_194_162)">
<path id="Vector" d="M29.2961 10.3125H25.7881L24.8131 7.875C23.8111 5.36894 21.4199 3.75 18.7205 3.75H11.2791C8.58026 3.75 6.18846 5.36894 5.18592 7.875L4.21092 10.3125H0.703498C0.245881 10.3125 -0.0898615 10.7426 0.0214666 11.1861L0.373029 12.5924C0.450959 12.9053 0.732209 13.125 1.05506 13.125H2.23104C1.44412 13.8123 0.937287 14.8113 0.937287 15.9375V18.75C0.937287 19.6945 1.29822 20.5471 1.87479 21.2068V24.375C1.87479 25.4104 2.71444 26.25 3.74979 26.25H5.62479C6.66014 26.25 7.49979 25.4104 7.49979 24.375V22.5H22.4998V24.375C22.4998 25.4104 23.3394 26.25 24.3748 26.25H26.2498C27.2851 26.25 28.1248 25.4104 28.1248 24.375V21.2068C28.7013 20.5477 29.0623 19.6951 29.0623 18.75V15.9375C29.0623 14.8113 28.5555 13.8123 27.7691 13.125H28.9451C29.268 13.125 29.5492 12.9053 29.6271 12.5924L29.9787 11.1861C30.0894 10.7426 29.7537 10.3125 29.2961 10.3125ZM8.66756 9.26777C9.09471 8.2002 10.1289 7.5 11.2791 7.5H18.7205C19.8707 7.5 20.9049 8.2002 21.332 9.26777L22.4998 12.1875H7.49979L8.66756 9.26777ZM5.62479 18.7383C4.49979 18.7383 3.74979 17.9906 3.74979 16.8691C3.74979 15.7477 4.49979 15 5.62479 15C6.74979 15 8.43729 16.6822 8.43729 17.8037C8.43729 18.9252 6.74979 18.7383 5.62479 18.7383ZM24.3748 18.7383C23.2498 18.7383 21.5623 18.9252 21.5623 17.8037C21.5623 16.6822 23.2498 15 24.3748 15C25.4998 15 26.2498 15.7477 26.2498 16.8691C26.2498 17.9906 25.4998 18.7383 24.3748 18.7383Z" fill="#10FFFE"/>
</g>
<defs>
<clipPath id="clip0_194_162">
<rect width="30" height="30" fill="white"/>
</clipPath>
</defs>
</svg>
