<svg width="34" height="33" viewBox="0 0 34 33" fill="none" xmlns="http://www.w3.org/2000/svg">
<g id="fa-solid:users">
<path id="Vector" d="M5.1 14.4375C6.97531 14.4375 8.5 12.5877 8.5 10.3125C8.5 8.0373 6.97531 6.1875 5.1 6.1875C3.22469 6.1875 1.7 8.0373 1.7 10.3125C1.7 12.5877 3.22469 14.4375 5.1 14.4375ZM28.9 14.4375C30.7753 14.4375 32.3 12.5877 32.3 10.3125C32.3 8.0373 30.7753 6.1875 28.9 6.1875C27.0247 6.1875 25.5 8.0373 25.5 10.3125C25.5 12.5877 27.0247 14.4375 28.9 14.4375ZM30.6 16.5H27.2C26.265 16.5 25.4203 16.9576 24.8041 17.6988C26.945 19.1232 28.4644 21.6949 28.7938 24.75H32.3C33.2403 24.75 34 23.8283 34 22.6875V20.625C34 18.3498 32.4753 16.5 30.6 16.5ZM17 16.5C20.2884 16.5 22.95 13.2709 22.95 9.28125C22.95 5.2916 20.2884 2.0625 17 2.0625C13.7116 2.0625 11.05 5.2916 11.05 9.28125C11.05 13.2709 13.7116 16.5 17 16.5ZM21.08 18.5625H20.6391C19.5341 19.207 18.3069 19.5938 17 19.5938C15.6931 19.5938 14.4713 19.207 13.3609 18.5625H12.92C9.54125 18.5625 6.8 21.8883 6.8 25.9875V27.8438C6.8 29.5518 7.94219 30.9375 9.35 30.9375H24.65C26.0578 30.9375 27.2 29.5518 27.2 27.8438V25.9875C27.2 21.8883 24.4587 18.5625 21.08 18.5625ZM9.19594 17.6988C8.57969 16.9576 7.735 16.5 6.8 16.5H3.4C1.52469 16.5 0 18.3498 0 20.625V22.6875C0 23.8283 0.759687 24.75 1.7 24.75H5.20094C5.53563 21.6949 7.055 19.1232 9.19594 17.6988Z" fill="#10FFFE"/>
</g>
</svg>
