<svg width="31" height="29" viewBox="0 0 31 29" fill="none" xmlns="http://www.w3.org/2000/svg">
<g id="ion:settings">
<path id="Vector" d="M15.5 17.2188C17.1051 17.2188 18.4062 16.0015 18.4062 14.5C18.4062 12.9985 17.1051 11.7812 15.5 11.7812C13.8949 11.7812 12.5938 12.9985 12.5938 14.5C12.5938 16.0015 13.8949 17.2188 15.5 17.2188Z" fill="#10FFFE"/>
<path id="Vector_2" d="M28.4807 16.9922L28.4522 16.9707L26.5414 15.5688C26.4203 15.4793 26.3238 15.3641 26.2596 15.2329C26.1954 15.1016 26.1654 14.958 26.172 14.8138V14.159C26.166 14.0157 26.1963 13.8731 26.2606 13.743C26.325 13.6128 26.4214 13.4988 26.542 13.4102L28.4522 12.0078L28.4807 11.9863C28.7753 11.7567 28.973 11.4366 29.0384 11.0831C29.1039 10.7297 29.0328 10.366 28.8379 10.0571L26.2519 5.87137C26.249 5.86742 26.2463 5.86325 26.2441 5.85891C26.0481 5.55427 25.7443 5.32346 25.3854 5.20654C25.0265 5.08962 24.6352 5.09398 24.2793 5.21887L24.2581 5.22623L22.0118 6.07187C21.8701 6.1255 21.7167 6.14684 21.5644 6.13414C21.4121 6.12143 21.2651 6.07505 21.1357 5.99881C20.9371 5.88175 20.7353 5.77111 20.5303 5.66689C20.3973 5.59945 20.2832 5.50372 20.197 5.38743C20.1109 5.27114 20.0552 5.13754 20.0344 4.9974L19.6959 2.755L19.6887 2.71422C19.615 2.3669 19.4157 2.05389 19.1244 1.82779C18.8331 1.60169 18.4675 1.47629 18.089 1.47266H12.911C12.5272 1.47381 12.1561 1.60164 11.8632 1.83363C11.5702 2.06562 11.3742 2.38689 11.3096 2.74084L11.3041 2.77256L10.9669 5.01949C10.9462 5.15923 10.8909 5.29251 10.8055 5.40874C10.72 5.52497 10.6067 5.62093 10.4746 5.68898C10.269 5.7926 10.0671 5.90254 9.86917 6.01863C9.74 6.09441 9.59346 6.14044 9.44158 6.15295C9.2897 6.16545 9.13681 6.14407 8.99548 6.09057L6.74737 5.24096L6.72618 5.23303C6.36984 5.108 5.97792 5.10381 5.61861 5.22116C5.2593 5.33852 4.95534 5.57 4.75962 5.87533L4.75175 5.88779L2.16216 10.0764C1.96697 10.3856 1.89573 10.7497 1.96118 11.1035C2.02663 11.4574 2.22449 11.7779 2.51938 12.0078L2.54784 12.0293L4.4587 13.4312C4.57971 13.5207 4.67628 13.6359 4.74049 13.7671C4.80469 13.8984 4.8347 14.042 4.82804 14.1862V14.841C4.8341 14.9843 4.80373 15.1269 4.73942 15.257C4.67511 15.3872 4.57869 15.5012 4.4581 15.5898L2.54784 16.9922L2.51938 17.0137C2.22478 17.2433 2.02708 17.5634 1.96163 17.9169C1.89619 18.2703 1.96727 18.634 2.16216 18.9429L4.74812 23.1286C4.75109 23.1326 4.75372 23.1367 4.75599 23.1411C4.95193 23.4457 5.25573 23.6765 5.61464 23.7935C5.97356 23.9104 6.3649 23.906 6.72073 23.7811L6.74192 23.7738L8.9864 22.9281C9.12817 22.8745 9.28154 22.8532 9.43387 22.8659C9.58619 22.8786 9.73311 22.9249 9.86251 23.0012C10.0611 23.1186 10.2629 23.2293 10.468 23.3331C10.6009 23.4005 10.7151 23.4963 10.8012 23.6126C10.8873 23.7289 10.9431 23.8625 10.9639 24.0026L11.3005 26.245L11.3078 26.2858C11.3816 26.6337 11.5813 26.9471 11.8734 27.1733C12.1654 27.3994 12.5319 27.5245 12.911 27.5273H18.089C18.4728 27.5262 18.8439 27.3984 19.1369 27.1664C19.4298 26.9344 19.6259 26.6131 19.6905 26.2592L19.6959 26.2274L20.0332 23.9805C20.0542 23.8405 20.1099 23.7071 20.1959 23.5908C20.2819 23.4746 20.3958 23.3787 20.5284 23.311C20.7355 23.2068 20.9377 23.0963 21.1339 22.9814C21.2631 22.9056 21.4096 22.8596 21.5615 22.8471C21.7134 22.8346 21.8663 22.8559 22.0076 22.9094L24.2557 23.7562L24.2769 23.7641C24.6332 23.8894 25.0252 23.8937 25.3846 23.7763C25.744 23.659 26.0479 23.4273 26.2435 23.1218C26.2459 23.1176 26.2485 23.1134 26.2513 23.1094L28.8373 18.9242C29.0328 18.615 29.1043 18.2508 29.039 17.8968C28.9736 17.5428 28.7757 17.2221 28.4807 16.9922ZM20.3383 14.713C20.2942 15.5901 19.9787 16.4363 19.43 17.1488C18.8813 17.8613 18.1232 18.4092 17.2478 18.7261C16.3724 19.0429 15.4174 19.115 14.499 18.9336C13.5806 18.7521 12.7384 18.3249 12.0747 17.704C11.411 17.0831 10.9545 16.2951 10.7606 15.4359C10.5667 14.5768 10.6439 13.6834 10.9827 12.8645C11.3215 12.0456 11.9074 11.3365 12.6691 10.8233C13.4307 10.3101 14.3354 10.015 15.273 9.97385C15.9461 9.94612 16.6181 10.0497 17.2461 10.2781C17.8741 10.5065 18.4444 10.8546 18.9208 11.3003C19.3972 11.746 19.7693 12.2796 20.0133 12.8671C20.2574 13.4547 20.368 14.0833 20.3383 14.713Z" fill="#10FFFE"/>
</g>
</svg>
