<svg width="30" height="30" viewBox="0 0 30 30" fill="none" xmlns="http://www.w3.org/2000/svg">
<g id="uis:schedule">
<path id="Vector" d="M23.75 5H22.5V3.75C22.5 3 22 2.5 21.25 2.5C20.5 2.5 20 3 20 3.75V5H10V3.75C10 3 9.5 2.5 8.75 2.5C8 2.5 7.5 3 7.5 3.75V5H6.25C4.125 5 2.5 6.625 2.5 8.75V10H27.5V8.75C27.5 6.625 25.875 5 23.75 5ZM2.5 23.75C2.5 25.875 4.125 27.5 6.25 27.5H23.75C25.875 27.5 27.5 25.875 27.5 23.75V12.5H2.5V23.75ZM21.25 15C22 15 22.5 15.5 22.5 16.25C22.5 17 22 17.5 21.25 17.5C20.5 17.5 20 17 20 16.25C20 15.5 20.5 15 21.25 15ZM21.25 20C22 20 22.5 20.5 22.5 21.25C22.5 22 22 22.5 21.25 22.5C20.5 22.5 20 22 20 21.25C20 20.5 20.5 20 21.25 20ZM15 15C15.75 15 16.25 15.5 16.25 16.25C16.25 17 15.75 17.5 15 17.5C14.25 17.5 13.75 17 13.75 16.25C13.75 15.5 14.25 15 15 15ZM15 20C15.75 20 16.25 20.5 16.25 21.25C16.25 22 15.75 22.5 15 22.5C14.25 22.5 13.75 22 13.75 21.25C13.75 20.5 14.25 20 15 20ZM8.75 15C9.5 15 10 15.5 10 16.25C10 17 9.5 17.5 8.75 17.5C8 17.5 7.5 17 7.5 16.25C7.5 15.5 8 15 8.75 15ZM8.75 20C9.5 20 10 20.5 10 21.25C10 22 9.5 22.5 8.75 22.5C8 22.5 7.5 22 7.5 21.25C7.5 20.5 8 20 8.75 20Z" fill="#10FFFE"/>
</g>
</svg>
