<svg width="55" height="64" viewBox="0 0 55 64" fill="none" xmlns="http://www.w3.org/2000/svg">
<path id="Vector" d="M27.0763 31.5752C31.1682 31.5793 35.0942 29.9239 37.9906 26.9731C40.8869 24.0223 42.5165 20.0178 42.5207 15.8407C42.5249 11.6635 40.9034 7.65583 38.0129 4.69923C35.1225 1.74263 31.1998 0.0793196 27.1079 0.0752143C23.016 0.0711091 19.09 1.72654 16.1936 4.67734C13.2972 7.62813 11.6677 11.6326 11.6635 15.8097C11.6593 19.9869 13.2808 23.9946 16.1713 26.9512C19.0617 29.9078 22.9844 31.5711 27.0763 31.5752ZM21.5619 37.4759C9.68913 37.464 0.0605307 47.2735 0.048371 59.3936C0.0463465 61.4116 1.64783 63.0497 3.62461 63.0517L50.4648 63.0987C52.4416 63.1007 54.0463 61.4657 54.0483 59.4478C54.0605 47.3277 44.4516 37.4989 32.5789 37.487L21.5619 37.4759Z" fill="#10FFFE"/>
</svg>
