<svg width="92" height="97" viewBox="0 0 92 97" fill="none" xmlns="http://www.w3.org/2000/svg">
<g clip-path="url(#clip0_624_281)">
<path d="M90.4676 60.9418C89.8926 60.0066 84.2173 57.6143 84.2173 57.6143C85.2044 57.1167 85.879 57.0138 85.879 54.9563C85.879 52.7118 85.8675 51.9636 84.3342 51.9636H79.1323C79.1112 51.9187 79.0882 51.872 79.0671 51.8252C75.7091 44.6689 75.2587 42.8601 70.2504 40.4248C63.5324 37.1646 50.9378 37 46.0005 37C41.0631 37 28.4685 37.1646 21.7563 40.4248C16.7423 42.8564 16.8668 44.1077 12.9395 51.8252C12.9395 51.8458 12.8993 51.9 12.8629 51.9636H7.65524C6.13339 51.9636 6.12189 52.7118 6.12189 54.9563C6.12189 57.0138 6.79657 57.1167 7.78366 57.6143C7.78366 57.6143 2.30002 60.1936 1.53335 60.9418C0.766674 61.69 0 66.9272 0 75.9054C0 84.8836 0.766674 93.8618 0.766674 93.8618H3.0552C3.0552 96.4804 3.45003 96.8545 4.60005 96.8545H19.9335C21.0835 96.8545 21.4669 96.4804 21.4669 93.8618H70.534C70.534 96.4804 70.9174 96.8545 72.0674 96.8545H87.7842C88.5509 96.8545 88.9342 96.2934 88.9342 93.8618H91.2343C91.2343 93.8618 92.0009 84.6965 92.0009 75.9054C92.0009 67.1143 91.0426 61.877 90.4676 60.9418ZM20.9417 69.3476C17.4509 69.72 13.9422 69.9111 10.4306 69.92C6.51673 69.92 6.38256 70.165 6.10656 67.7802C6.00273 66.6886 6.03556 65.5888 6.20431 64.505L6.32506 63.9345H6.90007C9.20009 63.9345 11.3602 64.0299 15.4389 65.2027C17.5134 65.8102 19.4646 66.7632 21.2062 68.0196C22.0419 68.6107 22.2336 69.1718 22.2336 69.1718L20.9417 69.3476ZM68.3145 82.8149L67.4673 84.8836H24.5336C24.5336 84.8836 24.6083 84.7695 23.5752 82.7924C22.8086 81.3297 23.7669 80.3945 25.283 79.8633C28.2194 78.8308 36.8004 75.9054 46.0005 75.9054C55.2006 75.9054 63.9521 78.4268 66.7965 79.8633C67.8507 80.3945 69.1598 80.7686 68.3145 82.8261V82.8149ZM19.0557 57.2776C18.4366 57.3124 17.8161 57.3168 17.1965 57.2907C17.6968 56.4228 17.9747 55.4558 18.4634 54.4457C19.9968 51.2659 21.7506 47.6672 24.8728 46.1503C29.3847 43.9581 38.7362 42.9705 46.0005 42.9705C53.2647 42.9705 62.6162 43.9506 67.1281 46.1503C70.2504 47.6672 71.9965 51.2678 73.5375 54.4457C74.0301 55.4651 74.3042 56.4396 74.8178 57.3131C74.4345 57.3337 73.9937 57.3131 72.9414 57.2776H19.0557ZM85.7027 67.7727C85.2925 70.107 85.6759 69.92 81.5703 69.92C78.0587 69.9111 74.55 69.72 71.0592 69.3476C70.513 69.2522 70.3577 68.3525 70.7947 68.0196C72.5275 66.7492 74.4814 65.7949 76.562 65.2027C80.6407 64.0299 82.9369 63.8728 85.2044 63.9514C85.3567 63.957 85.5014 64.0175 85.6108 64.1211C85.7201 64.2247 85.7863 64.3641 85.7966 64.5125C85.905 65.6013 85.8734 66.699 85.7027 67.7802V67.7727Z" fill="white"/>
<path d="M68.5522 11.619C69.0728 11.619 69.572 11.7704 69.9401 12.0398C70.3081 12.3092 70.5149 12.6746 70.5149 13.0556V18.8016H78.3657C78.8862 18.8016 79.3854 18.9529 79.7535 19.2223C80.1216 19.4917 80.3284 19.8571 80.3284 20.2381C80.3284 20.6191 80.1216 20.9845 79.7535 21.2539C79.3854 21.5233 78.8862 21.6746 78.3657 21.6746H70.5149V27.4206C70.5149 27.8016 70.3081 28.167 69.9401 28.4364C69.572 28.7058 69.0728 28.8571 68.5522 28.8571C68.0317 28.8571 67.5325 28.7058 67.1644 28.4364C66.7963 28.167 66.5896 27.8016 66.5896 27.4206V21.6746H58.7388C58.2183 21.6746 57.7191 21.5233 57.351 21.2539C56.9829 20.9845 56.7761 20.6191 56.7761 20.2381C56.7761 19.8571 56.9829 19.4917 57.351 19.2223C57.7191 18.9529 58.2183 18.8016 58.7388 18.8016H66.5896V13.0556C66.5896 12.6746 66.7963 12.3092 67.1644 12.0398C67.5325 11.7704 68.0317 11.619 68.5522 11.619ZM45 20.2381C45 17.9744 45.6092 15.7328 46.7928 13.6414C47.9764 11.5499 49.7113 9.64963 51.8983 8.04892C54.0853 6.44822 56.6817 5.17847 59.5392 4.31217C62.3967 3.44588 65.4593 3 68.5522 3C71.6452 3 74.7078 3.44588 77.5653 4.31217C80.4228 5.17847 83.0192 6.44822 85.2062 8.04892C87.3932 9.64963 89.1281 11.5499 90.3117 13.6414C91.4953 15.7328 92.1045 17.9744 92.1045 20.2381C92.1045 24.8099 89.6231 29.1945 85.2062 32.4273C80.7893 35.66 74.7987 37.4762 68.5522 37.4762C62.3058 37.4762 56.3152 35.66 51.8983 32.4273C47.4814 29.1945 45 24.8099 45 20.2381ZM68.5522 5.87302C63.3469 5.87302 58.3547 7.38647 54.6739 10.0804C50.9932 12.7744 48.9254 16.4282 48.9254 20.2381C48.9254 24.0479 50.9932 27.7018 54.6739 30.3957C58.3547 33.0897 63.3469 34.6032 68.5522 34.6032C73.7576 34.6032 78.7498 33.0897 82.4305 30.3957C86.1113 27.7018 88.1791 24.0479 88.1791 20.2381C88.1791 16.4282 86.1113 12.7744 82.4305 10.0804C78.7498 7.38647 73.7576 5.87302 68.5522 5.87302Z" fill="#10FFFE"/>
</g>
<defs>
<clipPath id="clip0_624_281">
<rect width="92" height="97" fill="white"/>
</clipPath>
</defs>
</svg>
