<svg width="100" height="100" viewBox="0 0 100 100" fill="none" xmlns="http://www.w3.org/2000/svg">
<g id="ion:car-sport-sharp">
<path id="Vector" d="M95.3125 43.75C94.7266 42.7734 88.9434 40.2754 88.9434 40.2754C89.9492 39.7559 90.6367 39.6484 90.6367 37.5C90.6367 35.1562 90.625 34.375 89.0625 34.375H83.7617C83.7402 34.3281 83.7168 34.2793 83.6953 34.2305C80.2734 26.7578 79.8145 24.8691 74.7109 22.3262C67.8652 18.9219 55.0312 18.75 50 18.75C44.9688 18.75 32.1348 18.9219 25.2949 22.3262C20.1855 24.8652 20.3125 26.1719 16.3105 34.2305C16.3105 34.252 16.2695 34.3086 16.2324 34.375H10.9258C9.375 34.375 9.36328 35.1562 9.36328 37.5C9.36328 39.6484 10.0508 39.7559 11.0566 40.2754C11.0566 40.2754 5.46875 42.9688 4.6875 43.75C3.90625 44.5312 3.125 50 3.125 59.375C3.125 68.75 3.90625 78.125 3.90625 78.125H6.23828C6.23828 80.8594 6.64062 81.25 7.8125 81.25H23.4375C24.6094 81.25 25 80.8594 25 78.125H75C75 80.8594 75.3906 81.25 76.5625 81.25H92.5781C93.3594 81.25 93.75 80.6641 93.75 78.125H96.0938C96.0938 78.125 96.875 68.5547 96.875 59.375C96.875 50.1953 95.8984 44.7266 95.3125 43.75ZM24.4648 52.5273C20.9076 52.9162 17.3323 53.1157 13.7539 53.125C9.76562 53.125 9.62891 53.3809 9.34766 50.8906C9.24185 49.7508 9.2753 48.6024 9.44727 47.4707L9.57031 46.875H10.1562C12.5 46.875 14.7012 46.9746 18.8574 48.1992C20.9713 48.8335 22.9596 49.8287 24.7344 51.1406C25.5859 51.7578 25.7812 52.3438 25.7812 52.3438L24.4648 52.5273ZM72.7383 66.5898L71.875 68.75H28.125C28.125 68.75 28.2012 68.6309 27.1484 66.5664C26.3672 65.0391 27.3438 64.0625 28.8887 63.5078C31.8809 62.4297 40.625 59.375 50 59.375C59.375 59.375 68.293 62.0078 71.1914 63.5078C72.2656 64.0625 73.5996 64.4531 72.7383 66.6016V66.5898ZM22.543 39.9238C21.9121 39.9602 21.2798 39.9648 20.6484 39.9375C21.1582 39.0312 21.4414 38.0215 21.9395 36.9668C23.502 33.6465 25.2891 29.8887 28.4707 28.3047C33.0684 26.0156 42.5977 24.9844 50 24.9844C57.4023 24.9844 66.9316 26.0078 71.5293 28.3047C74.7109 29.8887 76.4902 33.6484 78.0605 36.9668C78.5625 38.0312 78.8418 39.0488 79.3652 39.9609C78.9746 39.9824 78.5254 39.9609 77.4531 39.9238H22.543ZM90.457 50.8828C90.0391 53.3203 90.4297 53.125 86.2461 53.125C82.6677 53.1157 79.0924 52.9162 75.5352 52.5273C74.9785 52.4277 74.8203 51.4883 75.2656 51.1406C77.0314 49.8141 79.0224 48.8176 81.1426 48.1992C85.2988 46.9746 87.6387 46.8105 89.9492 46.8926C90.1044 46.8985 90.2519 46.9616 90.3633 47.0698C90.4748 47.178 90.5422 47.3236 90.5527 47.4785C90.6631 48.6154 90.631 49.7617 90.457 50.8906V50.8828Z" fill="white"/>
</g>
</svg>
