<svg width="23" height="23" viewBox="0 0 23 23" fill="none" xmlns="http://www.w3.org/2000/svg">
<path id="Vector" d="M3.35478 0.552233L11.25 8.44712L19.1043 0.593139C19.2778 0.408484 19.4868 0.260766 19.7188 0.158843C19.9507 0.0569206 20.2009 0.00289277 20.4543 0C20.9967 0 21.517 0.215487 21.9006 0.599057C22.2842 0.982626 22.4997 1.50286 22.4997 2.04531C22.5044 2.29607 22.4579 2.54515 22.3629 2.77729C22.268 3.00942 22.1266 3.21969 21.9474 3.39521L13.9908 11.2492L21.9474 19.2054C22.2845 19.5352 22.4822 19.9818 22.4997 20.4531C22.4997 20.9955 22.2842 21.5158 21.9006 21.8993C21.517 22.2829 20.9967 22.4984 20.4543 22.4984C20.1936 22.5092 19.9335 22.4657 19.6906 22.3706C19.4476 22.2756 19.2271 22.131 19.043 21.9461L11.25 14.0513L3.37523 21.9257C3.20241 22.1042 2.99594 22.2467 2.76776 22.345C2.53957 22.4433 2.29417 22.4954 2.04573 22.4984C1.50325 22.4984 0.983001 22.2829 0.599415 21.8993C0.215829 21.5158 0.000332799 20.9955 0.000332799 20.4531C-0.00443603 20.2023 0.0420904 19.9532 0.137057 19.7211C0.232024 19.489 0.373427 19.2787 0.552589 19.1032L8.50917 11.2492L0.552589 3.29294C0.215477 2.96316 0.0177997 2.51657 0.000332799 2.04531C0.000332799 1.50286 0.215829 0.982626 0.599415 0.599057C0.983001 0.215487 1.50325 0 2.04573 0C2.53662 0.00613592 3.00706 0.204531 3.35478 0.552233Z" fill="#10FFFE"/>
</svg>
