<svg width="47" height="55" viewBox="0 0 47 55" fill="none" xmlns="http://www.w3.org/2000/svg">
<g filter="url(#filter0_d_199_328)">
<path d="M23.5 6C15.3808 6 8.79883 12.5819 8.79883 20.7012C8.79883 23.4165 9.3303 26.2209 10.8555 28.2422L23.5 45L36.1445 28.2422C37.5298 26.4063 38.2012 23.1606 38.2012 20.7012C38.2012 12.5819 31.6192 6 23.5 6ZM23.5 14.5146C26.9163 14.5146 29.6866 17.2849 29.6866 20.7011C29.6866 24.1174 26.9163 26.8877 23.5 26.8877C20.0837 26.8877 17.3134 24.1174 17.3134 20.7012C17.3134 17.2849 20.0837 14.5146 23.5 14.5146Z" fill="#10FFFE"/>
</g>
<defs>
<filter id="filter0_d_199_328" x="0.798828" y="0" width="45.4023" height="55" filterUnits="userSpaceOnUse" color-interpolation-filters="sRGB">
<feFlood flood-opacity="0" result="BackgroundImageFix"/>
<feColorMatrix in="SourceAlpha" type="matrix" values="0 0 0 0 0 0 0 0 0 0 0 0 0 0 0 0 0 0 127 0" result="hardAlpha"/>
<feOffset dy="2"/>
<feGaussianBlur stdDeviation="4"/>
<feComposite in2="hardAlpha" operator="out"/>
<feColorMatrix type="matrix" values="0 0 0 0 0.0627451 0 0 0 0 1 0 0 0 0 0.996078 0 0 0 0.5 0"/>
<feBlend mode="normal" in2="BackgroundImageFix" result="effect1_dropShadow_199_328"/>
<feBlend mode="normal" in="SourceGraphic" in2="effect1_dropShadow_199_328" result="shape"/>
</filter>
</defs>
</svg>
