<svg width="30" height="30" viewBox="0 0 30 30" fill="none" xmlns="http://www.w3.org/2000/svg">
<g id="Frame 47">
<circle id="Ellipse 17" cx="12.5" cy="12.5" r="12" fill="#283131" stroke="#465454"/>
<path id="Vector" d="M12.575 16.55C12.4417 16.55 12.3167 16.5293 12.2 16.488C12.0833 16.4467 11.975 16.3757 11.875 16.275L7.275 11.675C7.09167 11.4917 7 11.2583 7 10.975C7 10.6917 7.09167 10.4583 7.275 10.275C7.45833 10.0917 7.69167 10 7.975 10C8.25833 10 8.49167 10.0917 8.675 10.275L12.575 14.175L16.475 10.275C16.6583 10.0917 16.8917 10 17.175 10C17.4583 10 17.6917 10.0917 17.875 10.275C18.0583 10.4583 18.15 10.6917 18.15 10.975C18.15 11.2583 18.0583 11.4917 17.875 11.675L13.275 16.275C13.175 16.375 13.0667 16.446 12.95 16.488C12.8333 16.53 12.7083 16.5507 12.575 16.55Z" fill="white"/>
</g>
</svg>
