<svg width="30" height="30" viewBox="0 0 30 30" fill="none" xmlns="http://www.w3.org/2000/svg">
<g id="Frame 48">
<circle id="Ellipse 17" cx="12.5" cy="12.5" r="12" fill="#283131" stroke="#465454"/>
<path id="Vector" d="M12.5749 10C12.7082 10 12.8332 10.0207 12.9499 10.062C13.0666 10.1034 13.1749 10.1744 13.2749 10.275L17.8749 14.875C18.0582 15.0584 18.1499 15.2917 18.1499 15.575C18.1499 15.8584 18.0582 16.0917 17.8749 16.275C17.6916 16.4584 17.4582 16.55 17.1749 16.55C16.8916 16.55 16.6582 16.4584 16.4749 16.275L12.5749 12.375L8.6749 16.275C8.49157 16.4584 8.25824 16.55 7.9749 16.55C7.69157 16.55 7.45824 16.4584 7.2749 16.275C7.09157 16.0917 6.9999 15.8584 6.9999 15.575C6.9999 15.2917 7.09157 15.0584 7.2749 14.875L11.8749 10.275C11.9749 10.175 12.0832 10.104 12.1999 10.062C12.3166 10.02 12.4416 9.99938 12.5749 10Z" fill="white"/>
</g>
</svg>
