<svg width="324" height="74" viewBox="0 0 324 74" fill="none" xmlns="http://www.w3.org/2000/svg">
<g filter="url(#filter0_ddf_249_236)">
<mask id="path-1-outside-1_249_236" maskUnits="userSpaceOnUse" x="10.4924" y="12.0306" width="301" height="48" fill="black">
<rect fill="white" x="10.4924" y="12.0306" width="301" height="48"/>
<path d="M41.4314 28.6485C41.1899 27.7537 40.8348 26.9653 40.366 26.2835C39.8973 25.5875 39.322 24.998 38.6402 24.515C37.9583 24.0321 37.1771 23.6698 36.2964 23.4284C35.4157 23.1727 34.4498 23.0448 33.3987 23.0448C31.2822 23.0448 29.4498 23.5562 27.9015 24.5789C26.3674 25.6017 25.1814 27.0931 24.3433 29.0534C23.5052 30.9994 23.0862 33.3644 23.0862 36.1485C23.0862 38.9468 23.491 41.3332 24.3007 43.3076C25.1103 45.2821 26.2822 46.7877 27.8163 47.8247C29.3504 48.8616 31.2112 49.3801 33.3987 49.3801C35.3305 49.3801 36.964 49.0676 38.2993 48.4426C39.6487 47.8034 40.6714 46.9014 41.3674 45.7366C42.0635 44.5718 42.4115 43.2011 42.4115 41.6244L44.3717 41.8588L33.7609 41.8588L33.7609 34.167L52.5748 34.167L52.5748 39.9411C52.5748 43.8474 51.7439 47.1926 50.0819 49.9767C48.4342 52.7608 46.1615 54.8985 43.2637 56.39C40.3802 57.8815 37.0635 58.6272 33.3135 58.6272C29.1515 58.6272 25.4939 57.7252 22.3404 55.9213C19.187 54.1173 16.7296 51.5463 14.9683 48.2082C13.2069 44.8559 12.3262 40.8787 12.3262 36.2764C12.3262 32.6968 12.8589 29.5221 13.9243 26.7522C14.9896 23.9681 16.474 21.6102 18.3774 19.6784C20.295 17.7465 22.5109 16.2835 25.0251 15.2892C27.5535 14.2948 30.2737 13.7977 33.1856 13.7977C35.714 13.7977 38.0649 14.1599 40.2382 14.8843C42.4257 15.6088 44.3575 16.6315 46.0336 17.9525C47.724 19.2735 49.0947 20.8431 50.1458 22.6613C51.197 24.4795 51.8504 26.4752 52.1061 28.6485L41.4314 28.6485ZM58.7911 58.0306L58.7911 14.3943L89.2172 14.3943L89.2172 22.9596L69.338 22.9596L69.338 31.9085L87.6618 31.9085L87.6618 40.4951L69.338 40.4951L69.338 49.4653L89.2172 49.4653L89.2172 58.0306L58.7911 58.0306ZM137.008 36.2125C137.008 41.0136 136.085 45.0832 134.239 48.4213C132.392 51.7593 129.892 54.2948 126.739 56.0278C123.599 57.7608 120.077 58.6272 116.17 58.6272C112.25 58.6272 108.72 57.7537 105.581 56.0065C102.442 54.2593 99.9488 51.7238 98.1022 48.4C96.2698 45.0619 95.3536 40.9994 95.3536 36.2125C95.3536 31.4113 96.2698 27.3417 98.1022 24.0036C99.9488 20.6656 102.442 18.1301 105.581 16.3971C108.72 14.6642 112.25 13.7977 116.17 13.7977C120.077 13.7977 123.599 14.6642 126.739 16.3971C129.892 18.1301 132.392 20.6656 134.239 24.0036C136.085 27.3417 137.008 31.4113 137.008 36.2125ZM126.227 36.2125C126.227 33.3715 125.822 30.971 125.013 29.0108C124.217 27.0505 123.067 25.5661 121.561 24.5576C120.069 23.5491 118.273 23.0448 116.17 23.0448C114.082 23.0448 112.285 23.5491 110.78 24.5576C109.274 25.5661 108.116 27.0505 107.307 29.0108C106.511 30.971 106.114 33.3715 106.114 36.2125C106.114 39.0534 106.511 41.4539 107.307 43.4142C108.116 45.3744 109.274 46.8588 110.78 47.8673C112.285 48.8758 114.082 49.3801 116.17 49.3801C118.273 49.3801 120.069 48.8758 121.561 47.8673C123.067 46.8588 124.217 45.3744 125.013 43.4142C125.822 41.4539 126.227 39.0534 126.227 36.2125ZM182.775 30.2039L172.122 30.2039C171.98 29.1102 171.689 28.123 171.248 27.2423C170.808 26.3616 170.226 25.6088 169.501 24.9838C168.777 24.3588 167.918 23.8829 166.923 23.5562C165.943 23.2153 164.856 23.0448 163.663 23.0448C161.547 23.0448 159.721 23.5633 158.187 24.6002C156.668 25.6372 155.496 27.1358 154.672 29.096C153.862 31.0562 153.457 33.4284 153.457 36.2125C153.457 39.1102 153.869 41.5392 154.693 43.4994C155.531 45.4454 156.703 46.9156 158.209 47.9099C159.729 48.89 161.525 49.3801 163.599 49.3801C164.764 49.3801 165.822 49.2309 166.774 48.9326C167.74 48.6343 168.585 48.2011 169.31 47.6329C170.048 47.0505 170.652 46.3474 171.121 45.5235C171.604 44.6855 171.937 43.7409 172.122 42.6897L182.775 42.7536C182.591 44.6855 182.03 46.5889 181.092 48.4639C180.169 50.3389 178.898 52.0505 177.278 53.5988C175.659 55.1329 173.685 56.3545 171.355 57.2636C169.04 58.1727 166.383 58.6272 163.386 58.6272C159.437 58.6272 155.9 57.7608 152.775 56.0278C149.665 54.2806 147.207 51.738 145.403 48.4C143.599 45.0619 142.697 40.9994 142.697 36.2125C142.697 31.4113 143.614 27.3417 145.446 24.0036C147.278 20.6656 149.757 18.1301 152.882 16.3971C156.007 14.6642 159.508 13.7977 163.386 13.7977C166.028 13.7977 168.471 14.167 170.716 14.9056C172.96 15.6301 174.935 16.6954 176.639 18.1017C178.344 19.4937 179.729 21.2054 180.794 23.2366C181.859 25.2679 182.52 27.5903 182.775 30.2039ZM229.997 36.2125C229.997 41.0136 229.073 45.0832 227.227 48.4213C225.38 51.7593 222.88 54.2948 219.727 56.0278C216.588 57.7608 213.065 58.6272 209.159 58.6272C205.238 58.6272 201.708 57.7537 198.569 56.0065C195.43 54.2593 192.937 51.7238 191.09 48.4C189.258 45.0619 188.342 40.9994 188.342 36.2125C188.342 31.4113 189.258 27.3417 191.09 24.0036C192.937 20.6656 195.43 18.1301 198.569 16.3971C201.708 14.6642 205.238 13.7977 209.159 13.7977C213.065 13.7977 216.588 14.6642 219.727 16.3971C222.88 18.1301 225.38 20.6656 227.227 24.0036C229.073 27.3417 229.997 31.4113 229.997 36.2125ZM219.215 36.2125C219.215 33.3715 218.811 30.971 218.001 29.0108C217.206 27.0505 216.055 25.5661 214.549 24.5576C213.058 23.5491 211.261 23.0448 209.159 23.0448C207.071 23.0448 205.274 23.5491 203.768 24.5576C202.262 25.5661 201.105 27.0505 200.295 29.0108C199.5 30.971 199.102 33.3715 199.102 36.2125C199.102 39.0534 199.5 41.4539 200.295 43.4142C201.105 45.3744 202.262 46.8588 203.768 47.8673C205.274 48.8758 207.071 49.3801 209.159 49.3801C211.261 49.3801 213.058 48.8758 214.549 47.8673C216.055 46.8588 217.206 45.3744 218.001 43.4142C218.811 41.4539 219.215 39.0534 219.215 36.2125ZM252.284 58.0306L236.154 58.0306L236.154 14.3943L252.262 14.3943C256.708 14.3943 260.536 15.2679 263.747 17.015C266.971 18.748 269.457 21.248 271.204 24.515C272.951 27.7679 273.825 31.6599 273.825 36.1911C273.825 40.7366 272.951 44.6429 271.204 47.9099C269.471 51.1769 266.992 53.684 263.768 55.4312C260.544 57.1642 256.715 58.0306 252.284 58.0306ZM246.701 49.0392L251.879 49.0392C254.322 49.0392 256.389 48.6272 258.079 47.8034C259.784 46.9653 261.069 45.6088 261.936 43.7338C262.816 41.8446 263.257 39.3304 263.257 36.1911C263.257 33.0519 262.816 30.5519 261.936 28.6911C261.055 26.8161 259.755 25.4667 258.036 24.6429C256.332 23.8048 254.23 23.3858 251.73 23.3858L246.701 23.3858L246.701 49.0392ZM279.982 58.0306L279.982 14.3943L310.409 14.3943L310.409 22.9596L290.529 22.9596L290.529 31.9085L308.853 31.9085L308.853 40.4951L290.529 40.4951L290.529 49.4653L310.409 49.4653L310.409 58.0306L279.982 58.0306Z"/>
</mask>
<path d="M41.4314 28.6485C41.1899 27.7537 40.8348 26.9653 40.366 26.2835C39.8973 25.5875 39.322 24.998 38.6402 24.515C37.9583 24.0321 37.1771 23.6698 36.2964 23.4284C35.4157 23.1727 34.4498 23.0448 33.3987 23.0448C31.2822 23.0448 29.4498 23.5562 27.9015 24.5789C26.3674 25.6017 25.1814 27.0931 24.3433 29.0534C23.5052 30.9994 23.0862 33.3644 23.0862 36.1485C23.0862 38.9468 23.491 41.3332 24.3007 43.3076C25.1103 45.2821 26.2822 46.7877 27.8163 47.8247C29.3504 48.8616 31.2112 49.3801 33.3987 49.3801C35.3305 49.3801 36.964 49.0676 38.2993 48.4426C39.6487 47.8034 40.6714 46.9014 41.3674 45.7366C42.0635 44.5718 42.4115 43.2011 42.4115 41.6244L44.3717 41.8588L33.7609 41.8588L33.7609 34.167L52.5748 34.167L52.5748 39.9411C52.5748 43.8474 51.7439 47.1926 50.0819 49.9767C48.4342 52.7608 46.1615 54.8985 43.2637 56.39C40.3802 57.8815 37.0635 58.6272 33.3135 58.6272C29.1515 58.6272 25.4939 57.7252 22.3404 55.9213C19.187 54.1173 16.7296 51.5463 14.9683 48.2082C13.2069 44.8559 12.3262 40.8787 12.3262 36.2764C12.3262 32.6968 12.8589 29.5221 13.9243 26.7522C14.9896 23.9681 16.474 21.6102 18.3774 19.6784C20.295 17.7465 22.5109 16.2835 25.0251 15.2892C27.5535 14.2948 30.2737 13.7977 33.1856 13.7977C35.714 13.7977 38.0649 14.1599 40.2382 14.8843C42.4257 15.6088 44.3575 16.6315 46.0336 17.9525C47.724 19.2735 49.0947 20.8431 50.1458 22.6613C51.197 24.4795 51.8504 26.4752 52.1061 28.6485L41.4314 28.6485ZM58.7911 58.0306L58.7911 14.3943L89.2172 14.3943L89.2172 22.9596L69.338 22.9596L69.338 31.9085L87.6618 31.9085L87.6618 40.4951L69.338 40.4951L69.338 49.4653L89.2172 49.4653L89.2172 58.0306L58.7911 58.0306ZM137.008 36.2125C137.008 41.0136 136.085 45.0832 134.239 48.4213C132.392 51.7593 129.892 54.2948 126.739 56.0278C123.599 57.7608 120.077 58.6272 116.17 58.6272C112.25 58.6272 108.72 57.7537 105.581 56.0065C102.442 54.2593 99.9488 51.7238 98.1022 48.4C96.2698 45.0619 95.3536 40.9994 95.3536 36.2125C95.3536 31.4113 96.2698 27.3417 98.1022 24.0036C99.9488 20.6656 102.442 18.1301 105.581 16.3971C108.72 14.6642 112.25 13.7977 116.17 13.7977C120.077 13.7977 123.599 14.6642 126.739 16.3971C129.892 18.1301 132.392 20.6656 134.239 24.0036C136.085 27.3417 137.008 31.4113 137.008 36.2125ZM126.227 36.2125C126.227 33.3715 125.822 30.971 125.013 29.0108C124.217 27.0505 123.067 25.5661 121.561 24.5576C120.069 23.5491 118.273 23.0448 116.17 23.0448C114.082 23.0448 112.285 23.5491 110.78 24.5576C109.274 25.5661 108.116 27.0505 107.307 29.0108C106.511 30.971 106.114 33.3715 106.114 36.2125C106.114 39.0534 106.511 41.4539 107.307 43.4142C108.116 45.3744 109.274 46.8588 110.78 47.8673C112.285 48.8758 114.082 49.3801 116.17 49.3801C118.273 49.3801 120.069 48.8758 121.561 47.8673C123.067 46.8588 124.217 45.3744 125.013 43.4142C125.822 41.4539 126.227 39.0534 126.227 36.2125ZM182.775 30.2039L172.122 30.2039C171.98 29.1102 171.689 28.123 171.248 27.2423C170.808 26.3616 170.226 25.6088 169.501 24.9838C168.777 24.3588 167.918 23.8829 166.923 23.5562C165.943 23.2153 164.856 23.0448 163.663 23.0448C161.547 23.0448 159.721 23.5633 158.187 24.6002C156.668 25.6372 155.496 27.1358 154.672 29.096C153.862 31.0562 153.457 33.4284 153.457 36.2125C153.457 39.1102 153.869 41.5392 154.693 43.4994C155.531 45.4454 156.703 46.9156 158.209 47.9099C159.729 48.89 161.525 49.3801 163.599 49.3801C164.764 49.3801 165.822 49.2309 166.774 48.9326C167.74 48.6343 168.585 48.2011 169.31 47.6329C170.048 47.0505 170.652 46.3474 171.121 45.5235C171.604 44.6855 171.937 43.7409 172.122 42.6897L182.775 42.7536C182.591 44.6855 182.03 46.5889 181.092 48.4639C180.169 50.3389 178.898 52.0505 177.278 53.5988C175.659 55.1329 173.685 56.3545 171.355 57.2636C169.04 58.1727 166.383 58.6272 163.386 58.6272C159.437 58.6272 155.9 57.7608 152.775 56.0278C149.665 54.2806 147.207 51.738 145.403 48.4C143.599 45.0619 142.697 40.9994 142.697 36.2125C142.697 31.4113 143.614 27.3417 145.446 24.0036C147.278 20.6656 149.757 18.1301 152.882 16.3971C156.007 14.6642 159.508 13.7977 163.386 13.7977C166.028 13.7977 168.471 14.167 170.716 14.9056C172.96 15.6301 174.935 16.6954 176.639 18.1017C178.344 19.4937 179.729 21.2054 180.794 23.2366C181.859 25.2679 182.52 27.5903 182.775 30.2039ZM229.997 36.2125C229.997 41.0136 229.073 45.0832 227.227 48.4213C225.38 51.7593 222.88 54.2948 219.727 56.0278C216.588 57.7608 213.065 58.6272 209.159 58.6272C205.238 58.6272 201.708 57.7537 198.569 56.0065C195.43 54.2593 192.937 51.7238 191.09 48.4C189.258 45.0619 188.342 40.9994 188.342 36.2125C188.342 31.4113 189.258 27.3417 191.09 24.0036C192.937 20.6656 195.43 18.1301 198.569 16.3971C201.708 14.6642 205.238 13.7977 209.159 13.7977C213.065 13.7977 216.588 14.6642 219.727 16.3971C222.88 18.1301 225.38 20.6656 227.227 24.0036C229.073 27.3417 229.997 31.4113 229.997 36.2125ZM219.215 36.2125C219.215 33.3715 218.811 30.971 218.001 29.0108C217.206 27.0505 216.055 25.5661 214.549 24.5576C213.058 23.5491 211.261 23.0448 209.159 23.0448C207.071 23.0448 205.274 23.5491 203.768 24.5576C202.262 25.5661 201.105 27.0505 200.295 29.0108C199.5 30.971 199.102 33.3715 199.102 36.2125C199.102 39.0534 199.5 41.4539 200.295 43.4142C201.105 45.3744 202.262 46.8588 203.768 47.8673C205.274 48.8758 207.071 49.3801 209.159 49.3801C211.261 49.3801 213.058 48.8758 214.549 47.8673C216.055 46.8588 217.206 45.3744 218.001 43.4142C218.811 41.4539 219.215 39.0534 219.215 36.2125ZM252.284 58.0306L236.154 58.0306L236.154 14.3943L252.262 14.3943C256.708 14.3943 260.536 15.2679 263.747 17.015C266.971 18.748 269.457 21.248 271.204 24.515C272.951 27.7679 273.825 31.6599 273.825 36.1911C273.825 40.7366 272.951 44.6429 271.204 47.9099C269.471 51.1769 266.992 53.684 263.768 55.4312C260.544 57.1642 256.715 58.0306 252.284 58.0306ZM246.701 49.0392L251.879 49.0392C254.322 49.0392 256.389 48.6272 258.079 47.8034C259.784 46.9653 261.069 45.6088 261.936 43.7338C262.816 41.8446 263.257 39.3304 263.257 36.1911C263.257 33.0519 262.816 30.5519 261.936 28.6911C261.055 26.8161 259.755 25.4667 258.036 24.6429C256.332 23.8048 254.23 23.3858 251.73 23.3858L246.701 23.3858L246.701 49.0392ZM279.982 58.0306L279.982 14.3943L310.409 14.3943L310.409 22.9596L290.529 22.9596L290.529 31.9085L308.853 31.9085L308.853 40.4951L290.529 40.4951L290.529 49.4653L310.409 49.4653L310.409 58.0306L279.982 58.0306Z" fill="#C8F1F6"/>
<path d="M41.4314 28.6485L40.4659 28.9091L40.6654 29.6485L41.4314 29.6485L41.4314 28.6485ZM40.366 26.2835L39.5365 26.8421L39.542 26.85L40.366 26.2835ZM36.2964 23.4284L36.0176 24.3887L36.0248 24.3908L36.032 24.3928L36.2964 23.4284ZM27.9015 24.5789L27.3504 23.7445L27.3468 23.7469L27.9015 24.5789ZM24.3433 29.0534L25.2617 29.4489L25.2628 29.4465L24.3433 29.0534ZM24.3007 43.3076L25.2259 42.9282L24.3007 43.3076ZM27.8163 47.8247L28.3763 46.9962L27.8163 47.8247ZM38.2993 48.4426L38.7232 49.3483L38.7273 49.3463L38.2993 48.4426ZM41.3674 45.7366L40.509 45.2236L41.3674 45.7366ZM42.4115 41.6244L42.5302 40.6315L41.4115 40.4977L41.4115 41.6244L42.4115 41.6244ZM44.3717 41.8588L44.3717 42.8588L44.4904 40.8658L44.3717 41.8588ZM33.7609 41.8588L32.7609 41.8588L32.7609 42.8588L33.7609 42.8588L33.7609 41.8588ZM33.7609 34.167L33.7609 33.167L32.7609 33.167L32.7609 34.167L33.7609 34.167ZM52.5748 34.167L53.5748 34.167L53.5748 33.167L52.5748 33.167L52.5748 34.167ZM50.0819 49.9767L49.2233 49.4641L49.2213 49.4673L50.0819 49.9767ZM43.2637 56.39L42.8061 55.5009L42.8043 55.5018L43.2637 56.39ZM22.3404 55.9213L22.837 55.0533L22.3404 55.9213ZM14.9683 48.2082L14.083 48.6733L14.0839 48.6749L14.9683 48.2082ZM13.9243 26.7522L14.8576 27.1112L14.8582 27.1096L13.9243 26.7522ZM18.3774 19.6784L17.6677 18.9739L17.6651 18.9765L18.3774 19.6784ZM25.0251 15.2892L24.6591 14.3585L24.6573 14.3592L25.0251 15.2892ZM40.2382 14.8843L39.9219 15.833L39.9238 15.8336L40.2382 14.8843ZM46.0336 17.9525L45.4146 18.7379L45.4179 18.7404L46.0336 17.9525ZM50.1458 22.6613L49.2801 23.1618L50.1458 22.6613ZM52.1061 28.6485L52.1061 29.6485L53.2306 29.6485L53.0992 28.5317L52.1061 28.6485ZM42.3968 28.388C42.1294 27.3969 41.7301 26.5025 41.1901 25.717L39.542 26.85C39.9394 27.4281 40.2504 28.1104 40.4659 28.9091L42.3968 28.388ZM41.1954 25.7249C40.6594 24.929 39.9991 24.2522 39.2182 23.699L38.0621 25.331C38.6448 25.7438 39.1351 26.2459 39.5366 26.8421L41.1954 25.7249ZM39.2182 23.699C38.4328 23.1427 37.5435 22.7334 36.5608 22.464L36.032 24.3928C36.8107 24.6063 37.4839 24.9214 38.0621 25.331L39.2182 23.699ZM36.5752 22.468C35.5918 22.1825 34.5307 22.0448 33.3987 22.0448L33.3987 24.0448C34.369 24.0448 35.2396 24.1628 36.0176 24.3887L36.5752 22.468ZM33.3987 22.0448C31.1146 22.0448 29.0843 22.5991 27.3504 23.7445L28.4527 25.4133C29.8153 24.5133 31.4498 24.0448 33.3987 24.0448L33.3987 22.0448ZM27.3468 23.7469C25.627 24.8934 24.326 26.55 23.4238 28.6603L25.2628 29.4465C26.0367 27.6363 27.1079 26.3099 28.4562 25.411L27.3468 23.7469ZM23.4248 28.6578C22.5189 30.7614 22.0862 33.2691 22.0862 36.1485L24.0862 36.1485C24.0862 33.4598 24.4915 31.2374 25.2617 29.4489L23.4248 28.6578ZM22.0862 36.1485C22.0862 39.0385 22.5037 41.5611 23.3754 43.687L25.2259 42.9282C24.4784 41.1053 24.0862 38.8552 24.0862 36.1485L22.0862 36.1485ZM23.3754 43.687C24.2482 45.8153 25.535 47.4897 27.2563 48.6532L28.3763 46.9962C27.0294 46.0858 25.9725 44.7488 25.2259 42.9282L23.3754 43.687ZM27.2563 48.6532C28.9839 49.8209 31.0486 50.3801 33.3987 50.3801L33.3987 48.3801C31.3738 48.3801 29.7168 47.9023 28.3763 46.9962L27.2563 48.6532ZM33.3987 50.3801C35.4335 50.3801 37.2208 50.0515 38.7232 49.3483L37.8753 47.5369C36.7073 48.0836 35.2275 48.3801 33.3987 48.3801L33.3987 50.3801ZM38.7273 49.3463C40.237 48.6312 41.4181 47.6013 42.2258 46.2496L40.509 45.2236C39.9247 46.2015 39.0603 46.9755 37.8712 47.5388L38.7273 49.3463ZM42.2258 46.2496C43.0286 44.9061 43.4115 43.3521 43.4115 41.6244L41.4115 41.6244C41.4115 43.0501 41.0983 44.2376 40.509 45.2236L42.2258 46.2496ZM42.2927 42.6173L44.253 42.8517L44.4904 40.8658L42.5302 40.6315L42.2927 42.6173ZM44.3717 40.8588L33.7609 40.8588L33.7609 42.8588L44.3717 42.8588L44.3717 40.8588ZM34.7609 41.8588L34.7609 34.167L32.7609 34.167L32.7609 41.8588L34.7609 41.8588ZM33.7609 35.167L52.5748 35.167L52.5748 33.167L33.7609 33.167L33.7609 35.167ZM51.5748 34.167L51.5748 39.9412L53.5748 39.9412L53.5748 34.167L51.5748 34.167ZM51.5748 39.9412C51.5748 43.704 50.7754 46.864 49.2233 49.4641L50.9406 50.4892C52.7123 47.5212 53.5748 43.9908 53.5748 39.9412L51.5748 39.9412ZM49.2213 49.4673C47.6702 52.0882 45.5378 54.0949 42.8061 55.5009L43.7214 57.2792C46.7852 55.7022 49.1981 53.4333 50.9425 50.486L49.2213 49.4673ZM42.8043 55.5018C40.0834 56.9092 36.9285 57.6272 33.3135 57.6272L33.3135 59.6272C37.1984 59.6272 40.6771 58.8538 43.7232 57.2782L42.8043 55.5018ZM33.3135 57.6272C29.3 57.6272 25.8183 56.7588 22.837 55.0533L21.8439 56.7893C25.1694 58.6917 29.0031 59.6272 33.3135 59.6272L33.3135 57.6272ZM22.837 55.0533C19.855 53.3473 17.5291 50.9186 15.8527 47.7415L14.0839 48.6749C15.9302 52.1739 18.5191 54.8872 21.8439 56.7893L22.837 55.0533ZM15.8535 47.7431C14.1821 44.562 13.3262 40.7511 13.3262 36.2764L11.3262 36.2764C11.3262 41.0062 12.2317 45.1499 14.083 48.6733L15.8535 47.7431ZM13.3262 36.2764C13.3262 32.7949 13.8444 29.7456 14.8576 27.1112L12.9909 26.3933C11.8735 29.2986 11.3262 32.5987 11.3262 36.2764L13.3262 36.2764ZM14.8582 27.1096C15.8792 24.4415 17.2924 22.2044 19.0897 20.3802L17.6651 18.9765C15.6556 21.016 14.1 23.4947 12.9903 26.3948L14.8582 27.1096ZM19.0871 20.3829C20.9082 18.5483 23.0079 17.1623 25.3929 16.2191L24.6573 14.3592C22.0139 15.4047 19.6818 16.9448 17.6677 18.9739L19.0871 20.3829ZM25.3911 16.2198C27.7948 15.2745 30.3899 14.7977 33.1856 14.7977L33.1856 12.7977C30.1575 12.7977 27.3123 13.3152 24.6591 14.3585L25.3911 16.2198ZM33.1856 14.7977C35.6176 14.7977 37.8606 15.1459 39.9219 15.833L40.5544 13.9356C38.2691 13.1739 35.8104 12.7977 33.1856 12.7977L33.1856 14.7977ZM39.9238 15.8336C42.0098 16.5245 43.8368 17.4943 45.4146 18.7379L46.6526 17.1671C44.8782 15.7686 42.8415 14.6931 40.5525 13.935L39.9238 15.8336ZM45.4179 18.7404C47.0094 19.9843 48.2945 21.457 49.2801 23.1618L51.0116 22.1608C49.8949 20.2293 48.4385 18.5628 46.6494 17.1646L45.4179 18.7404ZM49.2801 23.1618C50.2602 24.8572 50.8725 26.7215 51.1129 28.7654L53.0992 28.5317C52.8283 26.229 52.1337 24.1018 51.0116 22.1608L49.2801 23.1618ZM52.1061 27.6485L41.4314 27.6485L41.4314 29.6485L52.1061 29.6485L52.1061 27.6485ZM58.7911 58.0306L57.7911 58.0306L57.7911 59.0306L58.7911 59.0306L58.7911 58.0306ZM58.7911 14.3943L58.7911 13.3943L57.7911 13.3943L57.7911 14.3943L58.7911 14.3943ZM89.2172 14.3943L90.2172 14.3943L90.2172 13.3943L89.2172 13.3943L89.2172 14.3943ZM89.2172 22.9596L89.2172 23.9596L90.2172 23.9596L90.2172 22.9596L89.2172 22.9596ZM69.338 22.9596L69.338 21.9596L68.338 21.9596L68.338 22.9596L69.338 22.9596ZM69.338 31.9085L68.338 31.9085L68.338 32.9085L69.338 32.9085L69.338 31.9085ZM87.6618 31.9085L88.6618 31.9085L88.6618 30.9085L87.6618 30.9085L87.6618 31.9085ZM87.6618 40.4951L87.6618 41.4951L88.6618 41.4951L88.6618 40.4951L87.6618 40.4951ZM69.338 40.4951L69.338 39.4951L68.338 39.4951L68.338 40.4951L69.338 40.4951ZM69.338 49.4653L68.338 49.4653L68.338 50.4653L69.338 50.4653L69.338 49.4653ZM89.2172 49.4653L90.2172 49.4653L90.2172 48.4653L89.2172 48.4653L89.2172 49.4653ZM89.2172 58.0306L89.2172 59.0306L90.2172 59.0306L90.2172 58.0306L89.2172 58.0306ZM59.7911 58.0306L59.7911 14.3943L57.7911 14.3943L57.7911 58.0306L59.7911 58.0306ZM58.7911 15.3943L89.2172 15.3943L89.2172 13.3943L58.7911 13.3943L58.7911 15.3943ZM88.2172 14.3943L88.2172 22.9596L90.2172 22.9596L90.2172 14.3943L88.2172 14.3943ZM89.2172 21.9596L69.338 21.9596L69.338 23.9596L89.2172 23.9596L89.2172 21.9596ZM68.338 22.9596L68.338 31.9085L70.338 31.9085L70.338 22.9596L68.338 22.9596ZM69.338 32.9085L87.6618 32.9085L87.6618 30.9085L69.338 30.9085L69.338 32.9085ZM86.6618 31.9085L86.6618 40.4951L88.6618 40.4951L88.6618 31.9085L86.6618 31.9085ZM87.6618 39.4951L69.338 39.4951L69.338 41.4951L87.6618 41.4951L87.6618 39.4951ZM68.338 40.4951L68.338 49.4653L70.338 49.4653L70.338 40.4951L68.338 40.4951ZM69.338 50.4653L89.2172 50.4653L89.2172 48.4653L69.338 48.4653L69.338 50.4653ZM88.2172 49.4653L88.2172 58.0306L90.2172 58.0306L90.2172 49.4653L88.2172 49.4653ZM89.2172 57.0306L58.7911 57.0306L58.7911 59.0306L89.2172 59.0306L89.2172 57.0306ZM134.239 48.4213L133.363 47.9372L134.239 48.4213ZM126.739 56.0278L126.257 55.1514L126.255 55.1523L126.739 56.0278ZM105.581 56.0065L106.067 55.1327L105.581 56.0065ZM98.1022 48.4L97.2255 48.8812L97.228 48.8856L98.1022 48.4ZM98.1022 24.0037L97.2271 23.5196L97.2256 23.5224L98.1022 24.0037ZM105.581 16.3971L106.064 17.2726L105.581 16.3971ZM126.739 16.3971L126.255 17.2726L126.257 17.2735L126.739 16.3971ZM134.239 24.0037L133.363 24.4877L134.239 24.0037ZM125.013 29.0108L124.086 29.3868L124.088 29.3925L125.013 29.0108ZM121.561 24.5576L121.001 25.386L121.004 25.3885L121.561 24.5576ZM110.78 24.5576L111.336 25.3885L110.78 24.5576ZM107.307 29.0108L106.382 28.629L106.38 28.6347L107.307 29.0108ZM107.307 43.4142L106.38 43.7902L106.382 43.7959L107.307 43.4142ZM110.78 47.8673L111.336 47.0364L110.78 47.8673ZM121.561 47.8673L121.004 47.0364L121.001 47.0389L121.561 47.8673ZM125.013 43.4142L124.088 43.0324L124.086 43.0381L125.013 43.4142ZM136.008 36.2125C136.008 40.8873 135.11 44.7809 133.363 47.9372L135.114 48.9053C137.061 45.3855 138.008 41.1399 138.008 36.2125L136.008 36.2125ZM133.363 47.9372C131.603 51.1204 129.235 53.515 126.257 55.1514L127.22 56.9042C130.549 55.0747 133.181 52.3983 135.114 48.9053L133.363 47.9372ZM126.255 55.1523C123.277 56.7964 119.923 57.6272 116.17 57.6272L116.17 59.6272C120.23 59.6272 123.922 58.7251 127.222 56.9033L126.255 55.1523ZM116.17 57.6272C112.404 57.6272 109.044 56.7897 106.067 55.1327L105.095 56.8803C108.396 58.7176 112.096 59.6272 116.17 59.6272L116.17 57.6272ZM106.067 55.1327C103.101 53.4816 100.738 51.0851 98.9763 47.9143L97.228 48.8856C99.1596 52.3625 101.783 55.0371 105.095 56.8803L106.067 55.1327ZM98.9788 47.9188C97.2456 44.7614 96.3536 40.8736 96.3536 36.2125L94.3536 36.2125C94.3536 41.1251 95.294 45.3624 97.2256 48.8812L98.9788 47.9188ZM96.3536 36.2125C96.3536 31.5365 97.2458 27.6418 98.9788 24.4849L97.2256 23.5224C95.2938 27.0416 94.3536 31.2861 94.3536 36.2125L96.3536 36.2125ZM98.9772 24.4877C100.739 21.3034 103.1 18.9087 106.064 17.2726L105.098 15.5217C101.783 17.3515 99.1588 20.0278 97.2271 23.5196L98.9772 24.4877ZM106.064 17.2726C109.042 15.6288 112.403 14.7977 116.17 14.7977L116.17 12.7977C112.097 12.7977 108.398 13.6995 105.098 15.5217L106.064 17.2726ZM116.17 14.7977C119.923 14.7977 123.277 15.6285 126.255 17.2726L127.222 15.5217C123.922 13.6998 120.23 12.7977 116.17 12.7977L116.17 14.7977ZM126.257 17.2735C129.235 18.9099 131.603 21.3045 133.363 24.4877L135.114 23.5196C133.181 20.0266 130.549 17.3502 127.22 15.5207L126.257 17.2735ZM133.363 24.4877C135.11 27.6441 136.008 31.5376 136.008 36.2125L138.008 36.2125C138.008 31.285 137.061 27.0394 135.114 23.5196L133.363 24.4877ZM127.227 36.2125C127.227 33.2825 126.81 30.7438 125.937 28.629L124.088 29.3925C124.834 31.1981 125.227 33.4606 125.227 36.2125L127.227 36.2125ZM125.939 28.6347C125.082 26.5211 123.816 24.8642 122.117 23.7268L121.004 25.3885C122.318 26.2681 123.353 27.58 124.086 29.3868L125.939 28.6347ZM122.121 23.7292C120.438 22.5911 118.438 22.0448 116.17 22.0448L116.17 24.0448C118.107 24.0448 119.701 24.5071 121.001 25.386L122.121 23.7292ZM116.17 22.0448C113.915 22.0448 111.918 22.5919 110.223 23.7268L111.336 25.3885C112.653 24.5063 114.249 24.0448 116.17 24.0448L116.17 22.0448ZM110.223 23.7268C108.527 24.8631 107.254 26.5178 106.382 28.629L108.231 29.3925C108.978 27.5832 110.021 26.2692 111.336 25.3885L110.223 23.7268ZM106.38 28.6347C105.523 30.7477 105.114 33.2843 105.114 36.2125L107.114 36.2125C107.114 33.4588 107.5 31.1942 108.233 29.3868L106.38 28.6347ZM105.114 36.2125C105.114 39.1406 105.523 41.6772 106.38 43.7902L108.233 43.0381C107.5 41.2307 107.114 38.9661 107.114 36.2125L105.114 36.2125ZM106.382 43.7959C107.254 45.9071 108.527 47.5618 110.223 48.6981L111.336 47.0364C110.021 46.1557 108.978 44.8417 108.231 43.0324L106.382 43.7959ZM110.223 48.6981C111.918 49.833 113.915 50.3801 116.17 50.3801L116.17 48.3801C114.249 48.3801 112.653 47.9186 111.336 47.0364L110.223 48.6981ZM116.17 50.3801C118.438 50.3801 120.438 49.8338 122.121 48.6957L121.001 47.0389C119.701 47.9178 118.107 48.3801 116.17 48.3801L116.17 50.3801ZM122.117 48.6981C123.816 47.5607 125.082 45.9038 125.939 43.7902L124.086 43.0381C123.353 44.845 122.318 46.1568 121.004 47.0364L122.117 48.6981ZM125.937 43.7959C126.81 41.6811 127.227 39.1424 127.227 36.2125L125.227 36.2125C125.227 38.9643 124.834 41.2268 124.088 43.0324L125.937 43.7959ZM182.775 30.2039L182.775 31.2039L183.878 31.2039L183.771 30.1066L182.775 30.2039ZM172.122 30.2039L171.13 30.3327L171.244 31.2039L172.122 31.2039L172.122 30.2039ZM171.248 27.2423L170.354 27.6895L171.248 27.2423ZM169.501 24.9838L170.155 24.2266L169.501 24.9838ZM166.923 23.5562L166.595 24.5007L166.603 24.5035L166.611 24.5062L166.923 23.5562ZM158.187 24.6002L157.627 23.7717L157.624 23.7742L158.187 24.6002ZM154.672 29.096L153.75 28.7085L153.747 28.7142L154.672 29.096ZM154.693 43.4994L153.771 43.8869L153.775 43.8949L154.693 43.4994ZM158.209 47.9099L157.658 48.7444L157.667 48.7503L158.209 47.9099ZM166.774 48.9326L166.479 47.9771L166.475 47.9784L166.774 48.9326ZM169.31 47.6329L169.927 48.4198L169.929 48.4182L169.31 47.6329ZM171.121 45.5235L170.254 45.0242L170.251 45.029L171.121 45.5235ZM172.122 42.6897L172.128 41.6898L171.283 41.6847L171.137 42.5167L172.122 42.6897ZM182.775 42.7537L183.771 42.8488L183.875 41.7602L182.781 41.7537L182.775 42.7537ZM181.092 48.4639L180.198 48.0167L180.195 48.0221L181.092 48.4639ZM177.278 53.5988L177.966 54.3248L177.969 54.3216L177.278 53.5988ZM171.355 57.2636L170.991 56.332L170.99 56.3328L171.355 57.2636ZM152.775 56.0278L152.286 56.8997L152.29 56.9023L152.775 56.0278ZM145.403 48.4L146.283 47.9245L145.403 48.4ZM145.446 24.0037L144.569 23.5224L145.446 24.0037ZM170.716 14.9056L170.403 15.8555L170.409 15.8573L170.716 14.9056ZM176.639 18.1017L176.003 18.873L176.007 18.8762L176.639 18.1017ZM182.775 29.2039L172.122 29.2039L172.122 31.2039L182.775 31.2039L182.775 29.2039ZM173.114 30.0751C172.959 28.8838 172.639 27.787 172.143 26.7951L170.354 27.6895C170.739 28.459 171.001 29.3366 171.13 30.3327L173.114 30.0751ZM172.143 26.7951C171.645 25.7997 170.982 24.9405 170.155 24.2266L168.848 25.7409C169.469 26.277 169.971 26.9235 170.354 27.6895L172.143 26.7951ZM170.155 24.2266C169.321 23.5077 168.343 22.9702 167.235 22.6062L166.611 24.5062C167.492 24.7957 168.233 25.2099 168.848 25.7409L170.155 24.2266ZM167.252 22.6117C166.151 22.229 164.952 22.0448 163.663 22.0448L163.663 24.0448C164.761 24.0448 165.735 24.2016 166.595 24.5007L167.252 22.6117ZM163.663 22.0448C161.377 22.0448 159.35 22.6076 157.627 23.7717L158.747 25.4287C160.093 24.519 161.717 24.0448 163.663 24.0448L163.663 22.0448ZM157.624 23.7742C155.921 24.9358 154.637 26.5989 153.75 28.7085L155.594 29.4834C156.355 27.6726 157.414 26.3385 158.751 25.4263L157.624 23.7742ZM153.747 28.7142C152.875 30.8269 152.457 33.3363 152.457 36.2125L154.457 36.2125C154.457 33.5204 154.849 31.2855 155.596 29.4777L153.747 28.7142ZM152.457 36.2125C152.457 39.1979 152.881 41.7681 153.771 43.8868L155.615 43.1119C154.858 41.3102 154.457 39.0224 154.457 36.2125L152.457 36.2125ZM153.775 43.8949C154.676 45.9881 155.963 47.625 157.658 48.7444L158.76 47.0754C157.443 46.2061 156.386 44.9027 155.612 43.1039L153.775 43.8949ZM157.667 48.7503C159.371 49.8492 161.362 50.3801 163.599 50.3801L163.599 48.3801C161.689 48.3801 160.086 47.9308 158.751 47.0695L157.667 48.7503ZM163.599 50.3801C164.849 50.3801 166.01 50.2201 167.073 49.8869L166.475 47.9784C165.635 48.2418 164.679 48.3801 163.599 48.3801L163.599 50.3801ZM167.069 49.8881C168.14 49.5573 169.097 49.0704 169.927 48.4198L168.692 46.8461C168.073 47.3318 167.34 47.7114 166.479 47.9772L167.069 49.8881ZM169.929 48.4182C170.769 47.7553 171.458 46.9532 171.99 46.0181L170.251 45.029C169.846 45.7416 169.327 46.3458 168.69 46.8476L169.929 48.4182ZM171.987 46.0228C172.534 45.0738 172.904 44.0169 173.107 42.8628L171.137 42.5167C170.971 43.4648 170.673 44.2971 170.254 45.0242L171.987 46.0228ZM172.116 43.6897L182.769 43.7536L182.781 41.7537L172.128 41.6898L172.116 43.6897ZM181.78 42.6585C181.608 44.4582 181.085 46.2429 180.198 48.0167L181.987 48.9111C182.975 46.9348 183.574 44.9127 183.771 42.8488L181.78 42.6585ZM180.195 48.0221C179.327 49.7848 178.128 51.4028 176.587 52.876L177.969 54.3216C179.667 52.6983 181.011 50.893 181.989 48.9056L180.195 48.0221ZM176.591 52.8729C175.076 54.308 173.215 55.4642 170.991 56.332L171.719 58.1952C174.154 57.2448 176.242 55.9578 177.966 54.3248L176.591 52.8729ZM170.99 56.3328C168.812 57.1878 166.283 57.6272 163.386 57.6272L163.386 59.6272C166.484 59.6272 169.268 59.1575 171.72 58.1944L170.99 56.3328ZM163.386 57.6272C159.589 57.6272 156.222 56.7955 153.26 55.1533L152.29 56.9023C155.579 58.726 159.286 59.6272 163.386 59.6272L163.386 57.6272ZM153.265 55.1559C150.33 53.5073 148.003 51.1073 146.283 47.9245L144.524 48.8754C146.411 52.3688 148.999 55.054 152.286 56.8997L153.265 55.1559ZM146.283 47.9245C144.576 44.7658 143.697 40.8759 143.697 36.2125L141.697 36.2125C141.697 41.1228 142.623 45.3579 144.524 48.8754L146.283 47.9245ZM143.697 36.2125C143.697 31.5365 144.59 27.6418 146.323 24.4849L144.569 23.5224C142.638 27.0416 141.697 31.2861 141.697 36.2125L143.697 36.2125ZM146.323 24.4849C148.07 21.3009 150.418 18.907 153.367 17.2716L152.397 15.5226C149.096 17.3531 146.486 20.0303 144.569 23.5224L146.323 24.4849ZM153.367 17.2716C156.331 15.6279 159.663 14.7977 163.386 14.7977L163.386 12.7977C159.354 12.7977 155.683 13.7004 152.397 15.5226L153.367 17.2716ZM163.386 14.7977C165.935 14.7977 168.271 15.1538 170.403 15.8555L171.028 13.9558C168.672 13.1803 166.122 12.7977 163.386 12.7977L163.386 14.7977ZM170.409 15.8573C172.541 16.5456 174.402 17.5524 176.003 18.873L177.275 17.3303C175.467 15.8384 173.379 14.7146 171.023 13.954L170.409 15.8573ZM176.007 18.8762C177.602 20.1794 178.903 21.784 179.908 23.7011L181.68 22.7721C180.554 20.6267 179.085 18.808 177.272 17.3271L176.007 18.8762ZM179.908 23.7011C180.906 25.6028 181.535 27.7975 181.78 30.3013L183.771 30.1066C183.504 27.3831 182.813 24.9329 181.68 22.7721L179.908 23.7011ZM227.227 48.4213L226.352 47.9372L227.227 48.4213ZM219.727 56.0278L219.245 55.1514L219.244 55.1523L219.727 56.0278ZM198.569 56.0065L199.055 55.1327L198.569 56.0065ZM191.09 48.4L190.214 48.8812L190.216 48.8856L191.09 48.4ZM191.09 24.0037L190.215 23.5196L190.214 23.5224L191.09 24.0037ZM198.569 16.3971L199.052 17.2726L198.569 16.3971ZM219.727 16.3971L219.244 17.2726L219.245 17.2735L219.727 16.3971ZM227.227 24.0037L226.352 24.4877L227.227 24.0037ZM218.001 29.0108L217.074 29.3868L217.077 29.3925L218.001 29.0108ZM214.549 24.5576L213.989 25.386L213.993 25.3885L214.549 24.5576ZM203.768 24.5576L204.325 25.3885L203.768 24.5576ZM200.295 29.0108L199.371 28.629L199.368 28.6347L200.295 29.0108ZM200.295 43.4142L199.368 43.7902L199.371 43.7959L200.295 43.4142ZM203.768 47.8673L204.325 47.0364L203.768 47.8673ZM214.549 47.8673L213.993 47.0364L213.989 47.0389L214.549 47.8673ZM218.001 43.4142L217.077 43.0324L217.074 43.0381L218.001 43.4142ZM228.997 36.2125C228.997 40.8873 228.098 44.7809 226.352 47.9372L228.102 48.9053C230.049 45.3855 230.997 41.1399 230.997 36.2125L228.997 36.2125ZM226.352 47.9372C224.591 51.1204 222.223 53.515 219.245 55.1514L220.208 56.9042C223.538 55.0747 226.17 52.3983 228.102 48.9053L226.352 47.9372ZM219.244 55.1523C216.265 56.7964 212.911 57.6272 209.159 57.6272L209.159 59.6272C213.218 59.6272 216.91 58.7251 220.21 56.9033L219.244 55.1523ZM209.159 57.6272C205.392 57.6272 202.033 56.7897 199.055 55.1327L198.083 56.8803C201.384 58.7176 205.084 59.6272 209.159 59.6272L209.159 57.6272ZM199.055 55.1327C196.089 53.4816 193.726 51.0851 191.965 47.9143L190.216 48.8856C192.148 52.3625 194.771 55.0371 198.083 56.8803L199.055 55.1327ZM191.967 47.9188C190.234 44.7614 189.342 40.8736 189.342 36.2125L187.342 36.2125C187.342 41.1251 188.282 45.3624 190.214 48.8812L191.967 47.9188ZM189.342 36.2125C189.342 31.5365 190.234 27.6418 191.967 24.4849L190.214 23.5224C188.282 27.0416 187.342 31.2861 187.342 36.2125L189.342 36.2125ZM191.965 24.4877C193.727 21.3034 196.089 18.9087 199.052 17.2726L198.086 15.5217C194.771 17.3515 192.147 20.0278 190.215 23.5196L191.965 24.4877ZM199.052 17.2726C202.03 15.6288 205.391 14.7977 209.159 14.7977L209.159 12.7977C205.085 12.7977 201.387 13.6995 198.086 15.5217L199.052 17.2726ZM209.159 14.7977C212.911 14.7977 216.265 15.6285 219.244 17.2726L220.21 15.5217C216.91 13.6998 213.218 12.7977 209.159 12.7977L209.159 14.7977ZM219.245 17.2735C222.223 18.9099 224.591 21.3045 226.352 24.4877L228.102 23.5196C226.17 20.0266 223.538 17.3502 220.208 15.5207L219.245 17.2735ZM226.352 24.4877C228.098 27.6441 228.997 31.5376 228.997 36.2125L230.997 36.2125C230.997 31.285 230.049 27.0394 228.102 23.5196L226.352 24.4877ZM220.215 36.2125C220.215 33.2825 219.799 30.7438 218.925 28.629L217.077 29.3925C217.822 31.1981 218.215 33.4606 218.215 36.2125L220.215 36.2125ZM218.928 28.6347C218.07 26.5211 216.804 24.8642 215.106 23.7268L213.993 25.3885C215.306 26.2681 216.341 27.58 217.074 29.3868L218.928 28.6347ZM215.109 23.7292C213.426 22.5911 211.426 22.0448 209.159 22.0448L209.159 24.0448C211.096 24.0448 212.689 24.5071 213.989 25.386L215.109 23.7292ZM209.159 22.0448C206.903 22.0448 204.906 22.5919 203.211 23.7268L204.325 25.3885C205.642 24.5063 207.238 24.0448 209.159 24.0448L209.159 22.0448ZM203.211 23.7268C201.515 24.8631 200.243 26.5178 199.371 28.629L201.219 29.3925C201.967 27.5832 203.01 26.2692 204.325 25.3885L203.211 23.7268ZM199.368 28.6347C198.511 30.7477 198.102 33.2843 198.102 36.2125L200.102 36.2125C200.102 33.4588 200.488 31.1942 201.222 29.3868L199.368 28.6347ZM198.102 36.2125C198.102 39.1406 198.511 41.6772 199.368 43.7902L201.222 43.0381C200.488 41.2307 200.102 38.9661 200.102 36.2125L198.102 36.2125ZM199.371 43.7959C200.243 45.9071 201.515 47.5618 203.211 48.6981L204.325 47.0364C203.01 46.1557 201.967 44.8417 201.219 43.0324L199.371 43.7959ZM203.211 48.6981C204.906 49.833 206.903 50.3801 209.159 50.3801L209.159 48.3801C207.238 48.3801 205.642 47.9186 204.325 47.0364L203.211 48.6981ZM209.159 50.3801C211.426 50.3801 213.426 49.8338 215.109 48.6957L213.989 47.0389C212.689 47.9178 211.096 48.3801 209.159 48.3801L209.159 50.3801ZM215.106 48.6981C216.804 47.5607 218.07 45.9038 218.928 43.7902L217.074 43.0381C216.341 44.845 215.306 46.1568 213.993 47.0364L215.106 48.6981ZM218.925 43.7959C219.799 41.6811 220.215 39.1424 220.215 36.2125L218.215 36.2125C218.215 38.9643 217.822 41.2268 217.077 43.0324L218.925 43.7959ZM236.154 58.0306L235.154 58.0306L235.154 59.0306L236.154 59.0306L236.154 58.0306ZM236.154 14.3943L236.154 13.3943L235.154 13.3943L235.154 14.3943L236.154 14.3943ZM263.747 17.015L263.269 17.8934L263.273 17.8959L263.747 17.015ZM271.204 24.515L270.322 24.9866L270.323 24.9882L271.204 24.515ZM271.204 47.9099L270.322 47.4383L270.321 47.4413L271.204 47.9099ZM263.768 55.4312L264.241 56.3121L264.244 56.3104L263.768 55.4312ZM246.701 49.0392L245.701 49.0392L245.701 50.0392L246.701 50.0392L246.701 49.0392ZM258.079 47.8034L258.517 48.7023L258.52 48.7008L258.079 47.8034ZM261.936 43.7338L261.029 43.3112L261.028 43.3143L261.936 43.7338ZM261.936 28.6912L261.03 29.1163L261.032 29.1189L261.936 28.6912ZM258.036 24.6429L257.595 25.5403L257.604 25.5446L258.036 24.6429ZM246.701 23.3858L246.701 22.3858L245.701 22.3858L245.701 23.3858L246.701 23.3858ZM252.284 57.0306L236.154 57.0306L236.154 59.0306L252.284 59.0306L252.284 57.0306ZM237.154 58.0306L237.154 14.3943L235.154 14.3943L235.154 58.0306L237.154 58.0306ZM236.154 15.3943L252.262 15.3943L252.262 13.3943L236.154 13.3943L236.154 15.3943ZM252.262 15.3943C256.577 15.3943 260.234 16.2416 263.269 17.8934L264.225 16.1367C260.839 14.2941 256.839 13.3943 252.262 13.3943L252.262 15.3943ZM263.273 17.8959C266.322 19.5344 268.667 21.891 270.322 24.9866L272.086 24.0434C270.247 20.605 267.62 17.9615 264.22 16.1342L263.273 17.8959ZM270.323 24.9882C271.976 28.0661 272.825 31.788 272.825 36.1912L274.825 36.1912C274.825 31.5318 273.926 27.4696 272.085 24.0418L270.323 24.9882ZM272.825 36.1912C272.825 40.609 271.976 44.3457 270.322 47.4383L272.086 48.3815C273.926 44.94 274.825 40.8643 274.825 36.1912L272.825 36.1912ZM270.321 47.4413C268.679 50.5359 266.341 52.8995 263.292 54.552L264.244 56.3104C267.644 54.4686 270.263 51.8179 272.087 48.3785L270.321 47.4413ZM263.295 54.5504C260.243 56.1902 256.585 57.0306 252.284 57.0306L252.284 59.0306C256.846 59.0306 260.844 58.1381 264.241 56.3121L263.295 54.5504ZM246.701 50.0392L251.879 50.0392L251.879 48.0392L246.701 48.0392L246.701 50.0392ZM251.879 50.0392C254.43 50.0392 256.656 49.6095 258.517 48.7023L257.641 46.9045C256.122 47.645 254.214 48.0392 251.879 48.0392L251.879 50.0392ZM258.52 48.7008C260.449 47.7525 261.89 46.2169 262.843 44.1533L261.028 43.3143C260.249 45.0007 259.118 46.1781 257.638 46.906L258.52 48.7008ZM262.842 44.1563C263.808 42.085 264.257 39.4091 264.257 36.1912L262.257 36.1912C262.257 39.2516 261.825 41.6041 261.029 43.3113L262.842 44.1563ZM264.257 36.1912C264.257 32.9744 263.808 30.3095 262.839 28.2634L261.032 29.1189C261.825 30.7944 262.257 33.1295 262.257 36.1912L264.257 36.1912ZM262.841 28.266C261.871 26.2018 260.414 24.6735 258.469 23.7411L257.604 25.5446C259.097 26.26 260.239 27.4305 261.03 29.1163L262.841 28.266ZM258.478 23.7455C256.6 22.822 254.336 22.3858 251.73 22.3858L251.73 24.3858C254.123 24.3858 256.064 24.7875 257.595 25.5403L258.478 23.7455ZM251.73 22.3858L246.701 22.3858L246.701 24.3858L251.73 24.3858L251.73 22.3858ZM245.701 23.3858L245.701 49.0392L247.701 49.0392L247.701 23.3858L245.701 23.3858ZM279.982 58.0306L278.982 58.0306L278.982 59.0306L279.982 59.0306L279.982 58.0306ZM279.982 14.3943L279.982 13.3943L278.982 13.3943L278.982 14.3943L279.982 14.3943ZM310.409 14.3943L311.409 14.3943L311.409 13.3943L310.409 13.3943L310.409 14.3943ZM310.409 22.9596L310.409 23.9596L311.409 23.9596L311.409 22.9596L310.409 22.9596ZM290.529 22.9596L290.529 21.9596L289.529 21.9596L289.529 22.9596L290.529 22.9596ZM290.529 31.9085L289.529 31.9085L289.529 32.9085L290.529 32.9085L290.529 31.9085ZM308.853 31.9085L309.853 31.9085L309.853 30.9085L308.853 30.9085L308.853 31.9085ZM308.853 40.4951L308.853 41.4951L309.853 41.4951L309.853 40.4951L308.853 40.4951ZM290.529 40.4951L290.529 39.4951L289.529 39.4951L289.529 40.4951L290.529 40.4951ZM290.529 49.4653L289.529 49.4653L289.529 50.4653L290.529 50.4653L290.529 49.4653ZM310.409 49.4653L311.409 49.4653L311.409 48.4653L310.409 48.4653L310.409 49.4653ZM310.409 58.0306L310.409 59.0306L311.409 59.0306L311.409 58.0306L310.409 58.0306ZM280.982 58.0306L280.982 14.3943L278.982 14.3943L278.982 58.0306L280.982 58.0306ZM279.982 15.3943L310.409 15.3943L310.409 13.3943L279.982 13.3943L279.982 15.3943ZM309.409 14.3943L309.409 22.9596L311.409 22.9596L311.409 14.3943L309.409 14.3943ZM310.409 21.9596L290.529 21.9596L290.529 23.9596L310.409 23.9596L310.409 21.9596ZM289.529 22.9596L289.529 31.9085L291.529 31.9085L291.529 22.9596L289.529 22.9596ZM290.529 32.9085L308.853 32.9085L308.853 30.9085L290.529 30.9085L290.529 32.9085ZM307.853 31.9085L307.853 40.4951L309.853 40.4951L309.853 31.9085L307.853 31.9085ZM308.853 39.4951L290.529 39.4951L290.529 41.4951L308.853 41.4951L308.853 39.4951ZM289.529 40.4951L289.529 49.4653L291.529 49.4653L291.529 40.4951L289.529 40.4951ZM290.529 50.4653L310.409 50.4653L310.409 48.4653L290.529 48.4653L290.529 50.4653ZM309.409 49.4653L309.409 58.0306L311.409 58.0306L311.409 49.4653L309.409 49.4653ZM310.409 57.0306L279.982 57.0306L279.982 59.0306L310.409 59.0306L310.409 57.0306Z" fill="black" mask="url(#path-1-outside-1_249_236)"/>
</g>
<defs>
<filter id="filter0_ddf_249_236" x="4.32629" y="7.79773" width="314.082" height="60.8295" filterUnits="userSpaceOnUse" color-interpolation-filters="sRGB">
<feFlood flood-opacity="0" result="BackgroundImageFix"/>
<feColorMatrix in="SourceAlpha" type="matrix" values="0 0 0 0 0 0 0 0 0 0 0 0 0 0 0 0 0 0 127 0" result="hardAlpha"/>
<feOffset dy="2"/>
<feGaussianBlur stdDeviation="4"/>
<feComposite in2="hardAlpha" operator="out"/>
<feColorMatrix type="matrix" values="0 0 0 0 1 0 0 0 0 1 0 0 0 0 1 0 0 0 1 0"/>
<feBlend mode="normal" in2="BackgroundImageFix" result="effect1_dropShadow_249_236"/>
<feColorMatrix in="SourceAlpha" type="matrix" values="0 0 0 0 0 0 0 0 0 0 0 0 0 0 0 0 0 0 127 0" result="hardAlpha"/>
<feOffset dy="4"/>
<feGaussianBlur stdDeviation="2"/>
<feComposite in2="hardAlpha" operator="out"/>
<feColorMatrix type="matrix" values="0 0 0 0 0 0 0 0 0 0 0 0 0 0 0 0 0 0 0.25 0"/>
<feBlend mode="normal" in2="effect1_dropShadow_249_236" result="effect2_dropShadow_249_236"/>
<feBlend mode="normal" in="SourceGraphic" in2="effect2_dropShadow_249_236" result="shape"/>
<feGaussianBlur stdDeviation="0.625" result="effect3_foregroundBlur_249_236"/>
</filter>
</defs>
</svg>
