<svg width="90" height="90" viewBox="0 0 90 90" fill="none" xmlns="http://www.w3.org/2000/svg">
<g id="guidance:charging-station" clip-path="url(#clip0_154_873)">
<path id="Vector" d="M31.875 78.75L31.875 13.125L32.205 12.9037C39.3257 8.15695 47.6921 5.62397 56.25 5.62397C64.8079 5.62397 73.1743 8.15695 80.295 12.9037L80.625 13.125L80.625 78.75M22.5 84.375L90 84.375M31.875 61.875L28.125 61.875C24.1468 61.875 20.3314 60.2946 17.5184 57.4816C14.7054 54.6686 13.125 50.8532 13.125 46.875L13.125 22.5M13.125 22.5C16.875 22.5 18.75 20.625 18.75 20.625L18.75 11.25M13.125 22.5C9.375 22.5 7.5 20.625 7.5 20.625L7.5 11.25M18.75 11.25L7.5 11.25M18.75 11.25L18.75 3.75M7.5 11.25L7.5 3.75M60 45C58.125 52.5 52.5 56.25 52.5 56.25L52.5 58.125L60 58.125L60 60C58.125 67.5 52.5 71.25 52.5 71.25M69.375 35.625L43.125 35.625L43.125 18.9112C51.6647 16.1981 60.8353 16.1981 69.375 18.9112L69.375 35.625Z" stroke="white" stroke-width="4.16667"/>
</g>
<defs>
<clipPath id="clip0_154_873">
<rect width="90" height="90" fill="white"/>
</clipPath>
</defs>
</svg>
