<svg width="20" height="21" viewBox="0 0 20 21" fill="none" xmlns="http://www.w3.org/2000/svg">
<path d="M10 18.2857C12.1217 18.2857 14.1566 17.473 15.6569 16.0263C17.1571 14.5796 18 12.6174 18 10.5714C18 8.52549 17.1571 6.56333 15.6569 5.11662C14.1566 3.66991 12.1217 2.85716 10 2.85716C7.87827 2.85716 5.84344 3.66991 4.34315 5.11662C2.84285 6.56333 2 8.52549 2 10.5714C2 12.6174 2.84285 14.5796 4.34315 16.0263C5.84344 17.473 7.87827 18.2857 10 18.2857ZM10 0.928589C11.3132 0.928589 12.6136 1.17801 13.8268 1.66261C15.0401 2.14721 16.1425 2.85749 17.0711 3.75292C17.9997 4.64834 18.7362 5.71136 19.2388 6.88128C19.7413 8.05121 20 9.30513 20 10.5714C20 13.1289 18.9464 15.5816 17.0711 17.39C15.1957 19.1984 12.6522 20.2143 10 20.2143C4.47 20.2143 0 15.875 0 10.5714C0 8.014 1.05357 5.5613 2.92893 3.75292C4.8043 1.94453 7.34783 0.928589 10 0.928589ZM10.5 5.75002V10.8125L15 13.3872L14.25 14.5732L9 11.5357V5.75002H10.5Z" fill="#10FFFE"/>
</svg>
