<svg width="41" height="40" viewBox="0 0 41 40" fill="none" xmlns="http://www.w3.org/2000/svg">
<g id="zondicons:search">
<path id="Vector" d="M26.2999 28.424C23.0853 30.8587 19.0398 32.0073 14.9871 31.636C10.9345 31.2646 7.17935 29.4011 4.48637 26.425C1.79339 23.4489 0.365053 19.584 0.492188 15.6172C0.619324 11.6503 2.29237 7.87988 5.17067 5.07354C8.04898 2.26719 11.9161 0.635969 15.9847 0.512013C20.0532 0.388056 24.0172 1.78068 27.0696 4.40634C30.122 7.03199 32.0333 10.6932 32.4142 14.6446C32.7951 18.596 31.617 22.5403 29.1199 25.6745L39.8199 36.068L36.9799 38.837L26.3199 28.424L26.2999 28.424ZM16.4999 27.8C18.0757 27.8 19.6362 27.4974 21.0921 26.9094C22.548 26.3214 23.8709 25.4596 24.9852 24.3732C26.0995 23.2867 26.9834 21.9969 27.5864 20.5774C28.1895 19.1579 28.4999 17.6365 28.4999 16.1C28.4999 14.5636 28.1895 13.0421 27.5864 11.6226C26.9834 10.2031 26.0995 8.91331 24.9852 7.82687C23.8709 6.74042 22.548 5.87861 21.0921 5.29063C19.6362 4.70265 18.0757 4.40002 16.4999 4.40002C13.3173 4.40002 10.265 5.63269 8.0146 7.82687C5.76417 10.021 4.49988 12.997 4.49988 16.1C4.49988 19.2031 5.76417 22.179 8.0146 24.3732C10.265 26.5673 13.3173 27.8 16.4999 27.8Z" fill="white"/>
</g>
</svg>
