<svg width="25" height="24" viewBox="0 0 25 24" fill="none" xmlns="http://www.w3.org/2000/svg">
<path d="M12.5 19.7143C14.6217 19.7143 16.6566 18.9015 18.1569 17.4548C19.6571 16.0081 20.5 14.046 20.5 12C20.5 9.95405 19.6571 7.99189 18.1569 6.54518C16.6566 5.09847 14.6217 4.28572 12.5 4.28572C10.3783 4.28572 8.34344 5.09847 6.84315 6.54518C5.34285 7.99189 4.5 9.95405 4.5 12C4.5 14.046 5.34285 16.0081 6.84315 17.4548C8.34344 18.9015 10.3783 19.7143 12.5 19.7143ZM12.5 2.35715C13.8132 2.35715 15.1136 2.60657 16.3268 3.09117C17.5401 3.57576 18.6425 4.28605 19.5711 5.18147C20.4997 6.0769 21.2362 7.13992 21.7388 8.30984C22.2413 9.47977 22.5 10.7337 22.5 12C22.5 14.5574 21.4464 17.0101 19.5711 18.8185C17.6957 20.6269 15.1522 21.6429 12.5 21.6429C6.97 21.6429 2.5 17.3036 2.5 12C2.5 9.44256 3.55357 6.98986 5.42893 5.18147C7.3043 3.37309 9.84783 2.35715 12.5 2.35715ZM13 7.17858V12.2411L17.5 14.8157L16.75 16.0018L11.5 12.9643V7.17858H13Z" fill="white"/>
</svg>
