<svg width="30" height="30" viewBox="0 0 30 30" fill="none" xmlns="http://www.w3.org/2000/svg">
<g id="fluent:add-circle-16-regular">
<path id="Vector" d="M15 9.375C15.2486 9.375 15.4871 9.47377 15.6629 9.64959C15.8387 9.8254 15.9375 10.0639 15.9375 10.3125V14.0625H19.6875C19.9361 14.0625 20.1746 14.1613 20.3504 14.3371C20.5262 14.5129 20.625 14.7514 20.625 15C20.625 15.2486 20.5262 15.4871 20.3504 15.6629C20.1746 15.8387 19.9361 15.9375 19.6875 15.9375H15.9375V19.6875C15.9375 19.9361 15.8387 20.1746 15.6629 20.3504C15.4871 20.5262 15.2486 20.625 15 20.625C14.7514 20.625 14.5129 20.5262 14.3371 20.3504C14.1613 20.1746 14.0625 19.9361 14.0625 19.6875V15.9375H10.3125C10.0639 15.9375 9.8254 15.8387 9.64959 15.6629C9.47377 15.4871 9.375 15.2486 9.375 15C9.375 14.7514 9.47377 14.5129 9.64959 14.3371C9.8254 14.1613 10.0639 14.0625 10.3125 14.0625H14.0625V10.3125C14.0625 10.0639 14.1613 9.8254 14.3371 9.64959C14.5129 9.47377 14.7514 9.375 15 9.375ZM3.75 15C3.75 13.5226 4.04099 12.0597 4.60636 10.6948C5.17172 9.3299 6.00039 8.08971 7.04505 7.04505C8.08971 6.00039 9.3299 5.17172 10.6948 4.60636C12.0597 4.04099 13.5226 3.75 15 3.75C16.4774 3.75 17.9403 4.04099 19.3052 4.60636C20.6701 5.17172 21.9103 6.00039 22.955 7.04505C23.9996 8.08971 24.8283 9.3299 25.3936 10.6948C25.959 12.0597 26.25 13.5226 26.25 15C26.25 17.9837 25.0647 20.8452 22.955 22.955C20.8452 25.0647 17.9837 26.25 15 26.25C12.0163 26.25 9.15483 25.0647 7.04505 22.955C4.93526 20.8452 3.75 17.9837 3.75 15ZM15 5.625C12.5136 5.625 10.129 6.61272 8.37087 8.37087C6.61272 10.129 5.625 12.5136 5.625 15C5.625 17.4864 6.61272 19.871 8.37087 21.6291C10.129 23.3873 12.5136 24.375 15 24.375C17.4864 24.375 19.871 23.3873 21.6291 21.6291C23.3873 19.871 24.375 17.4864 24.375 15C24.375 12.5136 23.3873 10.129 21.6291 8.37087C19.871 6.61272 17.4864 5.625 15 5.625Z" fill="white"/>
</g>
</svg>
