<svg width="20" height="20" viewBox="0 0 20 20" fill="none" xmlns="http://www.w3.org/2000/svg">
<g id="mdi:ev-plug-type1">
<path id="Vector" d="M10.8334 7.5C10.8334 8.41667 11.5834 9.16667 12.5001 9.16667C13.4167 9.16667 14.1667 8.41667 14.1667 7.5C14.1667 6.58333 13.4167 5.83333 12.5001 5.83333C11.5834 5.83333 10.8334 6.58333 10.8334 7.5ZM5.83341 7.5C5.83341 8.41667 6.58341 9.16667 7.50008 9.16667C8.41675 9.16667 9.16675 8.41667 9.16675 7.5C9.16675 6.58333 8.41675 5.83333 7.50008 5.83333C6.58341 5.83333 5.83341 6.58333 5.83341 7.5ZM7.50008 11C7.50008 10.5 7.00008 10 6.50008 10C6.00008 10 5.50008 10.5 5.50008 11C5.50008 11.5 6.00008 12 6.50008 12C7.00008 12 7.50008 11.5833 7.50008 11ZM11.6667 13.3333C11.6667 12.4167 10.9167 11.6667 10.0001 11.6667C9.08341 11.6667 8.33341 12.4167 8.33341 13.3333C8.33341 14.25 9.08341 15 10.0001 15C10.9167 15 11.6667 14.25 11.6667 13.3333ZM10.0001 3.33333C13.6667 3.33333 16.6667 6.33333 16.6667 10C16.6667 13.6667 13.6667 16.6667 10.0001 16.6667C6.33341 16.6667 3.33341 13.6667 3.33341 10C3.33341 6.33333 6.33341 3.33333 10.0001 3.33333ZM10.0001 1.66667C5.41675 1.66667 1.66675 5.41667 1.66675 10C1.66675 14.5833 5.41675 18.3333 10.0001 18.3333C14.5834 18.3333 18.3334 14.5833 18.3334 10C18.3334 5.41667 14.5834 1.66667 10.0001 1.66667ZM14.5834 11C14.5834 10.4167 14.0834 10 13.5834 10C13.0001 10 12.5834 10.5 12.5834 11C12.5834 11.5 13.0834 12 13.5834 12C14.0834 12.0833 14.5834 11.5833 14.5834 11Z" fill="black"/>
</g>
</svg>
