<svg width="20" height="20" viewBox="0 0 20 20" fill="none" xmlns="http://www.w3.org/2000/svg">
<path d="M14.4167 4.16667C15.8334 5.41667 16.6667 7.16667 16.6667 9.16667C16.6667 12.8333 13.6667 15.8333 10.0001 15.8333C6.33341 15.8333 3.33341 12.8333 3.33341 9.16667C3.33341 7.16667 4.25008 5.41667 5.58341 4.16667H14.4167ZM15.0001 2.5H5.00008L4.50008 2.91667C2.66675 4.5 1.66675 6.75 1.66675 9.16667C1.66675 13.75 5.41675 17.5 10.0001 17.5C14.5834 17.5 18.3334 13.75 18.3334 9.16667C18.3334 6.75 17.3334 4.5 15.5001 2.91667L15.0001 2.5ZM10.8334 6.25C10.8334 6.91667 11.4167 7.5 12.0834 7.5C12.7501 7.5 13.3334 6.91667 13.3334 6.25C13.3334 5.58333 12.7501 5 12.0834 5C11.4167 5 10.8334 5.58333 10.8334 6.25ZM6.66675 6.25C6.66675 6.91667 7.25008 7.5 7.91675 7.5C8.58341 7.5 9.16675 6.91667 9.16675 6.25C9.16675 5.58333 8.58341 5 7.91675 5C7.25008 5 6.66675 5.58333 6.66675 6.25ZM5.83341 10.8333C6.75008 10.8333 7.50008 10.0833 7.50008 9.16667C7.50008 8.25 6.75008 7.5 5.83341 7.5C4.91675 7.5 4.16675 8.25 4.16675 9.16667C4.16675 10.0833 4.91675 10.8333 5.83341 10.8333ZM9.58341 12.5C9.58341 11.5833 8.83341 10.8333 7.91675 10.8333C7.00008 10.8333 6.25008 11.5833 6.25008 12.5C6.25008 13.4167 7.00008 14.1667 7.91675 14.1667C8.83341 14.1667 9.58341 13.4167 9.58341 12.5ZM10.0001 10.8333C10.9167 10.8333 11.6667 10.0833 11.6667 9.16667C11.6667 8.25 10.9167 7.5 10.0001 7.5C9.08341 7.5 8.33341 8.25 8.33341 9.16667C8.33341 10.0833 9.08341 10.8333 10.0001 10.8333ZM13.7501 12.5C13.7501 11.5833 13.0001 10.8333 12.0834 10.8333C11.1667 10.8333 10.4167 11.5833 10.4167 12.5C10.4167 13.4167 11.1667 14.1667 12.0834 14.1667C13.0001 14.1667 13.7501 13.4167 13.7501 12.5ZM15.8334 9.16667C15.8334 8.25 15.0834 7.5 14.1667 7.5C13.2501 7.5 12.5001 8.25 12.5001 9.16667C12.5001 10.0833 13.2501 10.8333 14.1667 10.8333C15.0834 10.8333 15.8334 10.0833 15.8334 9.16667Z" fill="#10FFFE"/>
</svg>
