<svg width="20" height="20" viewBox="0 0 20 20" fill="none" xmlns="http://www.w3.org/2000/svg">
<g clip-path="url(#clip0_687_285)">
<path d="M6.25008 16.6667C6.25008 17.3333 5.66675 17.9167 5.00008 17.9167C4.33341 17.9167 3.75008 17.3333 3.75008 16.6667C3.75008 16 4.33341 15.4167 5.00008 15.4167C5.66675 15.4167 6.25008 16 6.25008 16.6667ZM15.0001 15.4167C14.3334 15.4167 13.7501 16 13.7501 16.6667C13.7501 17.3333 14.3334 17.9167 15.0001 17.9167C15.6667 17.9167 16.2501 17.3333 16.2501 16.6667C16.2501 16 15.6667 15.4167 15.0001 15.4167ZM18.3334 16.6667C18.3334 18.5 16.8334 20 15.0001 20H5.00008C3.16675 20 1.66675 18.5 1.66675 16.6667C1.66675 14.8333 3.16675 13.3333 5.00008 13.3333H5.25008C3.58341 12 2.50008 9.83333 2.50008 7.5C2.50008 3.33333 5.83341 0 10.0001 0C14.1667 0 17.5001 3.33333 17.5001 7.5C17.5001 9.83333 16.4167 12 14.7501 13.3333H15.0001C16.8334 13.3333 18.3334 14.8333 18.3334 16.6667ZM10.0001 13.3333C13.2501 13.3333 15.8334 10.75 15.8334 7.5C15.8334 4.25 13.2501 1.66667 10.0001 1.66667C6.75008 1.66667 4.16675 4.25 4.16675 7.5C4.16675 10.75 6.75008 13.3333 10.0001 13.3333ZM16.6667 16.6667C16.6667 15.75 15.9167 15 15.0001 15H5.00008C4.08341 15 3.33341 15.75 3.33341 16.6667C3.33341 17.5833 4.08341 18.3333 5.00008 18.3333H15.0001C15.9167 18.3333 16.6667 17.5833 16.6667 16.6667ZM10.7501 5.25C10.7501 4.41667 11.4167 3.75 12.2501 3.75C13.0834 3.75 13.7501 4.41667 13.7501 5.25C13.7501 6.08333 13.0834 6.75 12.2501 6.75C11.4167 6.75 10.7501 6.08333 10.7501 5.25ZM6.25008 5.25C6.25008 4.41667 6.91675 3.75 7.75008 3.75C8.58341 3.75 9.25008 4.41667 9.25008 5.25C9.25008 6.08333 8.58341 6.75 7.75008 6.75C6.91675 6.75 6.25008 6.08333 6.25008 5.25ZM7.75008 8.5C7.75008 9 7.33341 9.41667 6.83341 9.41667C6.33341 9.41667 5.91675 9 5.91675 8.5C5.91675 8 6.25008 7.5 6.75008 7.5C7.33341 7.5 7.75008 8 7.75008 8.5ZM11.5001 10.5833C11.5001 11.4167 10.8334 12.0833 10.0001 12.0833C9.16675 12.0833 8.50008 11.4167 8.50008 10.5833C8.50008 9.75 9.16675 9.08333 10.0001 9.08333C10.8334 9.08333 11.5001 9.75 11.5001 10.5833ZM14.1667 8.5C14.1667 9 13.7501 9.41667 13.2501 9.41667C12.7501 9.41667 12.3334 9 12.3334 8.5C12.3334 8 12.6667 7.5 13.2501 7.5C13.7501 7.5 14.1667 8 14.1667 8.5Z" fill="#10FFFE"/>
</g>
<defs>
<clipPath id="clip0_687_285">
<rect width="20" height="20" fill="white"/>
</clipPath>
</defs>
</svg>
