<svg width="12" height="7" viewBox="0 0 12 7" fill="none" xmlns="http://www.w3.org/2000/svg">
<path d="M5.5749 4.86374e-05C5.70824 4.86374e-05 5.83324 0.0207157 5.9499 0.0620489C6.06657 0.103382 6.1749 0.174382 6.2749 0.275048L10.8749 4.87505C11.0582 5.05838 11.1499 5.29172 11.1499 5.57505C11.1499 5.85838 11.0582 6.09171 10.8749 6.27505C10.6916 6.45838 10.4582 6.55005 10.1749 6.55005C9.89157 6.55005 9.65824 6.45838 9.4749 6.27505L5.5749 2.37505L1.6749 6.27505C1.49157 6.45838 1.25824 6.55005 0.974902 6.55005C0.691568 6.55005 0.458237 6.45838 0.274903 6.27505C0.0915699 6.09171 -9.82285e-05 5.85838 -9.82285e-05 5.57505C-9.82285e-05 5.29172 0.0915699 5.05838 0.274903 4.87505L4.8749 0.275048C4.9749 0.175048 5.08324 0.104049 5.1999 0.0620489C5.31657 0.0200491 5.44157 -0.000617981 5.5749 4.86374e-05Z" fill="white"/>
</svg>
