<svg width="12" height="12" viewBox="0 0 12 12" fill="none" xmlns="http://www.w3.org/2000/svg">
<path d="M3.0625 1.625C2.94647 1.625 2.83519 1.67109 2.75314 1.75314C2.67109 1.83519 2.625 1.94647 2.625 2.0625V10.375H3.5V9.0625C3.5 8.91331 3.55926 8.77024 3.66475 8.66475C3.77024 8.55926 3.91332 8.5 4.0625 8.5H7.9375C8.08668 8.5 8.22976 8.55926 8.33525 8.66475C8.44074 8.77024 8.5 8.91331 8.5 9.0625V10.375H9.375V5.8125C9.375 5.69647 9.32891 5.58519 9.24686 5.50314C9.16481 5.42109 9.05353 5.375 8.9375 5.375H7.6875C7.515 5.375 7.375 5.235 7.375 5.0625V2.0625C7.375 2.00505 7.36368 1.94816 7.3417 1.89508C7.31971 1.842 7.28748 1.79377 7.24686 1.75314C7.20623 1.71252 7.158 1.68029 7.10492 1.6583C7.05184 1.63632 6.99495 1.625 6.9375 1.625H3.0625ZM2.3125 11C2.14 11 2 10.86 2 10.6875V2.0625C2 1.78071 2.11194 1.51046 2.3112 1.3112C2.51046 1.11194 2.78071 1 3.0625 1H6.9375C7.21929 1 7.48954 1.11194 7.6888 1.3112C7.88806 1.51046 8 1.78071 8 2.0625V4.75H8.9375C9.21929 4.75 9.48954 4.86194 9.6888 5.0612C9.88806 5.26046 10 5.53071 10 5.8125V10.6875C10 10.86 9.86 11 9.6875 11H2.3125ZM4.125 10.375H5.6875V9.125H4.125V10.375ZM6.3125 10.375H7.875V9.125H6.3125V10.375ZM4.5 3.5C4.5 3.63261 4.44732 3.75978 4.35355 3.85355C4.25978 3.94732 4.13261 4 4 4C3.86739 4 3.74021 3.94732 3.64645 3.85355C3.55268 3.75978 3.5 3.63261 3.5 3.5C3.5 3.36739 3.55268 3.24021 3.64645 3.14645C3.74021 3.05268 3.86739 3 4 3C4.13261 3 4.25978 3.05268 4.35355 3.14645C4.44732 3.24021 4.5 3.36739 4.5 3.5ZM4 5.75C4.13261 5.75 4.25978 5.69732 4.35355 5.60355C4.44732 5.50978 4.5 5.38261 4.5 5.25C4.5 5.11739 4.44732 4.99021 4.35355 4.89645C4.25978 4.80268 4.13261 4.75 4 4.75C3.86739 4.75 3.74021 4.80268 3.64645 4.89645C3.55268 4.99021 3.5 5.11739 3.5 5.25C3.5 5.38261 3.55268 5.50978 3.64645 5.60355C3.74021 5.69732 3.86739 5.75 4 5.75ZM4.5 7C4.5 7.13261 4.44732 7.25978 4.35355 7.35355C4.25978 7.44732 4.13261 7.5 4 7.5C3.86739 7.5 3.74021 7.44732 3.64645 7.35355C3.55268 7.25978 3.5 7.13261 3.5 7C3.5 6.86739 3.55268 6.74021 3.64645 6.64645C3.74021 6.55268 3.86739 6.5 4 6.5C4.13261 6.5 4.25978 6.55268 4.35355 6.64645C4.44732 6.74021 4.5 6.86739 4.5 7ZM6 4C6.13261 4 6.25978 3.94732 6.35355 3.85355C6.44732 3.75978 6.5 3.63261 6.5 3.5C6.5 3.36739 6.44732 3.24021 6.35355 3.14645C6.25978 3.05268 6.13261 3 6 3C5.86739 3 5.74021 3.05268 5.64645 3.14645C5.55268 3.24021 5.5 3.36739 5.5 3.5C5.5 3.63261 5.55268 3.75978 5.64645 3.85355C5.74021 3.94732 5.86739 4 6 4ZM6.5 5.25C6.5 5.38261 6.44732 5.50978 6.35355 5.60355C6.25978 5.69732 6.13261 5.75 6 5.75C5.86739 5.75 5.74021 5.69732 5.64645 5.60355C5.55268 5.50978 5.5 5.38261 5.5 5.25C5.5 5.11739 5.55268 4.99021 5.64645 4.89645C5.74021 4.80268 5.86739 4.75 6 4.75C6.13261 4.75 6.25978 4.80268 6.35355 4.89645C6.44732 4.99021 6.5 5.11739 6.5 5.25ZM6 7.5C6.13261 7.5 6.25978 7.44732 6.35355 7.35355C6.44732 7.25978 6.5 7.13261 6.5 7C6.5 6.86739 6.44732 6.74021 6.35355 6.64645C6.25978 6.55268 6.13261 6.5 6 6.5C5.86739 6.5 5.74021 6.55268 5.64645 6.64645C5.55268 6.74021 5.5 6.86739 5.5 7C5.5 7.13261 5.55268 7.25978 5.64645 7.35355C5.74021 7.44732 5.86739 7.5 6 7.5ZM8.5 7C8.5 7.13261 8.44732 7.25978 8.35355 7.35355C8.25979 7.44732 8.13261 7.5 8 7.5C7.86739 7.5 7.74021 7.44732 7.64645 7.35355C7.55268 7.25978 7.5 7.13261 7.5 7C7.5 6.86739 7.55268 6.74021 7.64645 6.64645C7.74021 6.55268 7.86739 6.5 8 6.5C8.13261 6.5 8.25979 6.55268 8.35355 6.64645C8.44732 6.74021 8.5 6.86739 8.5 7Z" fill="#10FFFE"/>
</svg>
