 <svg
          xmlns="http://www.w3.org/2000/svg"
          width="21"
          height="21"
          viewBox="0 0 21 21"
          fill="none"
        >
          <path
            d="M14.2078 2.25354C14.5057 1.95557 14.8594 1.7192 15.2487 1.55793C15.638 1.39665 16.0552 1.31363 16.4766 1.3136C16.8979 1.31357 17.3152 1.39653 17.7045 1.55775C18.0938 1.71897 18.4475 1.95529 18.7455 2.25321C19.0434 2.55113 19.2798 2.90483 19.4411 3.2941C19.6023 3.68338 19.6854 4.1006 19.6854 4.52196C19.6854 4.94332 19.6025 5.36056 19.4412 5.74986C19.28 6.13915 19.0437 6.49288 18.7458 6.79085L18.1545 7.38213L18.335 7.56326C18.5483 7.77655 18.7175 8.02976 18.8329 8.30845C18.9484 8.58713 19.0078 8.88583 19.0078 9.18748C19.0078 9.48913 18.9484 9.78782 18.8329 10.0665C18.7175 10.3452 18.5483 10.5984 18.335 10.8117L16.8702 12.2764C16.7465 12.396 16.5807 12.4621 16.4086 12.4606C16.2366 12.4591 16.072 12.3901 15.9503 12.2685C15.8286 12.1468 15.7596 11.9822 15.7581 11.8101C15.7566 11.638 15.8227 11.4723 15.9423 11.3485L17.407 9.88376C17.4985 9.79234 17.5711 9.6838 17.6206 9.56433C17.6701 9.44486 17.6956 9.3168 17.6956 9.18748C17.6956 9.05815 17.6701 8.9301 17.6206 8.81063C17.5711 8.69116 17.4985 8.58261 17.407 8.4912L17.2259 8.31007L7.3966 18.1407C7.06568 18.4718 6.64613 18.7001 6.18844 18.7983L2.10657 19.673C1.99937 19.6961 1.88809 19.6919 1.78292 19.6609C1.67774 19.6299 1.582 19.5731 1.50447 19.4955C1.42693 19.418 1.37006 19.3222 1.33905 19.2171C1.30803 19.1119 1.30387 19.0006 1.32694 18.8934L2.20172 14.8115C2.29988 14.3539 2.52823 13.9343 2.85929 13.6034L14.2078 2.25354Z"
            fill="white"
          />
        </svg>