<svg width="12" height="12" viewBox="0 0 12 12" fill="none" xmlns="http://www.w3.org/2000/svg">
<path d="M9.5 1H3.7315C3.385 0.4025 2.739 0 2 0C0.897 0 0 0.897 0 2V9.5C0 10.8785 1.1215 12 2.5 12H9.5C10.8785 12 12 10.8785 12 9.5V3.5C12 2.1215 10.8785 1 9.5 1ZM10.914 3H8.5C8.224 3 8 2.776 8 2.5V2H9.5C10.152 2 10.7075 2.418 10.914 3ZM1 2C1 1.4485 1.4485 1 2 1C2.5515 1 3 1.4485 3 2V8C3 8.5515 2.5515 9 2 9C1.4485 9 1 8.5515 1 8V2ZM9.5 11H2.5C1.7555 11 1.1365 10.455 1.02 9.743C1.31 9.9065 1.644 10 2 10C3.103 10 4 9.103 4 8V2H7V2.5C7 3.327 7.673 4 8.5 4H11V9.5C11 10.327 10.327 11 9.5 11ZM8 5.5C8 5.776 7.776 6 7.5 6C7.224 6 7 5.776 7 5.5C7 5.224 7.224 5 7.5 5C7.776 5 8 5.224 8 5.5ZM6 5.5C6 5.776 5.776 6 5.5 6C5.224 6 5 5.776 5 5.5C5 5.224 5.224 5 5.5 5C5.776 5 6 5.224 6 5.5ZM10 5.5C10 5.776 9.776 6 9.5 6C9.224 6 9 5.776 9 5.5C9 5.224 9.224 5 9.5 5C9.776 5 10 5.224 10 5.5ZM8 7.5C8 7.776 7.776 8 7.5 8C7.224 8 7 7.776 7 7.5C7 7.224 7.224 7 7.5 7C7.776 7 8 7.224 8 7.5ZM6 7.5C6 7.776 5.776 8 5.5 8C5.224 8 5 7.776 5 7.5C5 7.224 5.224 7 5.5 7C5.776 7 6 7.224 6 7.5ZM10 7.5C10 7.776 9.776 8 9.5 8C9.224 8 9 7.776 9 7.5C9 7.224 9.224 7 9.5 7C9.776 7 10 7.224 10 7.5ZM8 9.5C8 9.776 7.776 10 7.5 10C7.224 10 7 9.776 7 9.5C7 9.224 7.224 9 7.5 9C7.776 9 8 9.224 8 9.5ZM6 9.5C6 9.776 5.776 10 5.5 10C5.224 10 5 9.776 5 9.5C5 9.224 5.224 9 5.5 9C5.776 9 6 9.224 6 9.5ZM10 9.5C10 9.776 9.776 10 9.5 10C9.224 10 9 9.776 9 9.5C9 9.224 9.224 9 9.5 9C9.776 9 10 9.224 10 9.5Z" fill="#10FFFE"/>
</svg>
