<svg width="21" height="25" viewBox="0 0 21 25" fill="none" xmlns="http://www.w3.org/2000/svg">
<path id="Vector" d="M10.5 12.5C12.0913 12.5 13.6174 11.8679 14.7426 10.7426C15.8679 9.61742 16.5 8.0913 16.5 6.5C16.5 4.9087 15.8679 3.38258 14.7426 2.25736C13.6174 1.13214 12.0913 0.5 10.5 0.5C8.9087 0.5 7.38258 1.13214 6.25736 2.25736C5.13214 3.38258 4.5 4.9087 4.5 6.5C4.5 8.0913 5.13214 9.61742 6.25736 10.7426C7.38258 11.8679 8.9087 12.5 10.5 12.5ZM8.35781 14.75C3.74063 14.75 0 18.4906 0 23.1078C0 23.8766 0.623438 24.5 1.39219 24.5H19.6078C20.3766 24.5 21 23.8766 21 23.1078C21 18.4906 17.2594 14.75 12.6422 14.75H8.35781Z" fill="white"/>
</svg>
